<svg width="120" height="100" viewBox="0 0 120 100" fill="none" xmlns="http://www.w3.org/2000/svg">
<path d="M111.54 50.2148C111.54 52.4916 111.387 54.7338 111.09 56.9283C110.983 57.7414 110.853 58.5447 110.704 59.343C106.419 82.4796 86.1287 100 61.7476 100C56.4623 100 51.3709 99.177 46.5916 97.651C45.0325 97.1549 43.5062 96.5817 42.0177 95.9394C28.0676 89.9125 17.4214 77.6946 13.5441 62.7482C13.089 61.0021 12.7292 59.2165 12.468 57.403C12.1263 55.0557 11.9521 52.6558 11.9521 50.2148C11.9521 46.7899 12.2971 43.4455 12.9576 40.2161C13.2007 39.0203 13.4866 37.8425 13.8135 36.6795C14.7746 33.2694 16.0906 30.0071 17.7204 26.9353C19.319 23.9178 21.2182 21.0826 23.3819 18.4757C25.7987 15.5551 28.5473 12.9138 31.5654 10.6108C33.044 9.48393 34.5867 8.43592 36.1902 7.47826C37.0445 6.96411 37.917 6.47625 38.8058 6.01795C40.3156 5.22948 41.8731 4.51822 43.4717 3.88909C49.1299 1.6551 55.2942 0.429688 61.746 0.429688C73.3927 0.429688 84.1046 4.42623 92.5854 11.1249C93.9802 12.2255 95.316 13.4016 96.5843 14.6451C97.7294 15.7654 98.822 16.9448 99.8554 18.1735C99.9211 18.2491 99.9852 18.3279 100.049 18.4051C101.014 19.5632 101.925 20.7639 102.781 22.0091C102.987 22.3047 103.189 22.6053 103.386 22.9076C104.51 24.6143 105.532 26.3982 106.442 28.2445C106.726 28.8211 106.999 29.4026 107.26 29.9923C108.686 33.1971 109.784 36.5793 110.51 40.0978C110.965 42.2973 111.274 44.551 111.425 46.8474C111.5 47.9595 111.538 49.0831 111.538 50.2148H111.54Z" fill="#B0F7E9"/>
<path d="M104.712 60.6253L87.0273 57.2579C84.8257 56.8391 83.4128 54.7611 83.8317 52.56L91.2923 13.4027C91.7113 11.2016 93.7895 9.78889 95.9911 10.2078L113.676 13.5752C115.877 13.9941 117.29 16.072 116.871 18.2731L109.411 57.4304C108.992 59.6315 106.913 61.0442 104.712 60.6253Z" fill="#333333"/>
<path d="M107.763 54.5222L93.1373 51.7379L91.8788 51.4981L86.5097 50.4747L88.9626 37.6014L90.4067 30.0239L93.4494 14.0492L114.701 18.0967L107.763 54.5222Z" fill="white"/>
<path d="M13.6753 36.1221C13.6211 36.4145 13.4207 37.2818 12.6403 38.0127C11.8352 38.7667 10.9218 38.8981 10.631 38.9293C10.9349 38.9688 11.8615 39.1248 12.6698 39.9051C13.442 40.6492 13.6457 41.5181 13.7049 41.8253C13.746 41.5428 13.9119 40.6574 14.6808 39.9051C15.4792 39.1215 16.4124 38.9885 16.6901 38.9589C16.4108 38.931 15.4135 38.7963 14.5921 37.9536C13.8955 37.2391 13.7246 36.4227 13.6753 36.1221Z" fill="#62CFE8"/>
<path d="M115.222 61.7057C115.167 61.9981 114.967 62.8654 114.187 63.5964C113.382 64.3503 112.468 64.4817 112.177 64.513C112.481 64.5524 113.408 64.7084 114.216 65.4887C114.988 66.2328 115.192 67.1018 115.251 67.4089C115.292 67.1264 115.458 66.241 116.227 65.4887C117.026 64.7051 117.959 64.5721 118.236 64.5425C117.957 64.5146 116.96 64.3799 116.138 63.5372C115.442 62.8227 115.271 62.0063 115.222 61.7057Z" fill="#7DDAEA"/>
<path d="M6.3463 23.5609C6.24444 24.1063 5.86985 25.7292 4.41257 27.0959C2.90929 28.5053 1.20067 28.7517 0.65686 28.8075C1.22696 28.8798 2.95695 29.1722 4.46845 30.6292C5.91258 32.0205 6.29374 33.6434 6.40218 34.2184C6.47939 33.6894 6.78988 32.0353 8.22416 30.6292C9.71594 29.1656 11.4591 28.9176 11.9799 28.8617C11.4575 28.8092 9.59272 28.5595 8.05822 26.9842C6.75702 25.6487 6.43666 24.1227 6.3463 23.5609Z" fill="#4CC0D3"/>
<path d="M46.5899 97.6532C45.0308 97.1571 43.5045 96.5838 42.016 95.9415C41.7893 87.5493 41.5889 79.7631 41.4098 72.5782C41.395 71.9885 41.3802 71.4038 41.3671 70.8223C41.3408 69.748 41.3128 68.6934 41.2915 67.6503C41.2898 67.6487 41.2915 67.6487 41.2915 67.6487C41.2898 67.6306 41.2898 67.6109 41.2898 67.5928C41.1288 61.0206 40.9908 54.9921 40.8742 49.5008V49.4959C40.8233 47.0713 40.7756 44.7503 40.7296 42.536C40.5637 33.9401 40.4553 26.9161 40.4109 21.4461C40.4027 20.4819 40.3961 19.5653 40.3928 18.6996V18.6931C40.3764 15.7954 40.383 13.435 40.4109 11.6067C40.4273 10.4339 40.4536 9.47948 40.4898 8.74358C40.5489 7.49517 40.6311 6.87097 40.7411 6.86769C40.8529 6.8644 40.9909 7.51817 41.1552 8.83886C41.2472 9.60268 41.3523 10.5899 41.4657 11.7989C41.671 14.0312 41.9093 17.0258 42.1803 20.7858V20.7907C42.2198 21.3558 42.2625 21.9406 42.3036 22.5418V22.5483C42.7225 28.5752 43.2104 36.3498 43.7707 45.9034C43.7707 45.9034 43.7707 45.905 43.7707 45.9083C43.8627 47.4935 43.958 49.1312 44.0549 50.8165C44.4476 57.6483 44.8714 65.2816 45.3282 73.7314C45.3857 74.8073 45.4432 75.8931 45.5023 76.9953C45.5401 77.6704 45.5746 78.3472 45.6108 79.0289C45.6617 79.9767 45.7143 80.9343 45.7652 81.9019C46.0313 86.8988 46.3057 92.1487 46.5916 97.6564L46.5899 97.6532Z" fill="#48C15C"/>
<path d="M53.9632 32.2487C50.1877 35.3417 44.0201 41.4688 42.5629 50.4852C42.3854 51.5809 42.2902 52.647 42.2589 53.6769C42.7058 53.8182 43.1527 53.9594 43.5996 54.1023C43.6817 53.1792 43.8312 51.916 44.1253 50.4343C45.2425 44.7919 47.5015 40.7395 48.6253 38.9129C49.7507 37.083 51.4593 34.6929 53.9632 32.2503V32.2487Z" fill="#48C15C"/>
<path d="M30.6995 29.3263C34.4749 32.4194 40.6425 38.5464 42.0998 47.5629C42.2772 48.6585 42.3725 49.7246 42.4037 50.7545C41.9568 50.8958 41.5099 51.0371 41.0631 51.18C40.9809 50.2568 40.8314 48.9936 40.5373 47.512C39.4201 41.8695 37.1611 37.8171 36.0373 35.9905C34.9119 34.1606 33.2033 31.7705 30.6995 29.3279V29.3263Z" fill="#48C15C"/>
<path d="M35.0779 11.996C37.1808 13.7191 40.6162 17.1325 41.4278 22.1541C41.5264 22.7635 41.5806 23.3581 41.597 23.9314C41.3489 24.0102 41.0992 24.0891 40.8511 24.1679C40.8051 23.6538 40.7213 22.9507 40.5587 22.1245C39.936 18.9821 38.6792 16.7251 38.0516 15.7067C37.424 14.6883 36.4727 13.3561 35.0779 11.996Z" fill="#48C15C"/>
<path d="M46.6851 15.1259C44.8911 16.596 41.9584 19.5084 41.2668 23.7941C41.183 24.3148 41.1369 24.8207 41.1222 25.3119C41.3341 25.3792 41.5461 25.4466 41.7596 25.5139C41.7991 25.0753 41.8697 24.4741 42.0094 23.7694C42.54 21.087 43.6145 19.1602 44.1485 18.2929C44.6841 17.4239 45.4957 16.2872 46.6868 15.1259H46.6851Z" fill="#48C15C"/>
<path d="M26.9931 56.1942C31.4717 58.1309 39.0867 62.3295 42.9656 70.5985C43.4371 71.6022 43.8216 72.6009 44.1354 73.5832C43.7444 73.8428 43.355 74.1006 42.964 74.3602C42.6321 73.4962 42.1392 72.3217 41.4508 70.978C38.8254 65.8595 35.5413 62.5824 33.9591 61.1353C32.3737 59.6848 30.0752 57.8549 26.9964 56.1959L26.9931 56.1942Z" fill="#48C15C"/>
<path d="M61.1414 59.6488C56.6628 61.5855 49.0478 65.7841 45.1688 74.0531C44.6973 75.0568 44.3129 76.0555 43.9991 77.0378C44.3901 77.2973 44.7795 77.5552 45.1705 77.8148C45.5024 76.9507 45.9952 75.7763 46.6836 74.4326C49.309 69.3141 52.5932 66.037 54.1754 64.5899C55.7608 63.1394 58.0593 61.3095 61.1381 59.6504L61.1414 59.6488Z" fill="#48C15C"/>
<path d="M66.7698 23.2437C66.6236 25.5303 65.996 29.9818 62.7989 33.9603C58.5223 39.2824 50.5689 42.6055 47.7463 40.4307C47.6872 40.3879 47.633 40.3419 47.5804 40.2927C47.3783 40.1071 47.2025 39.8837 47.0563 39.6274C45.7666 37.3951 46.5585 32.6922 49.1231 28.8057C49.938 27.5655 50.9336 26.4124 52.0985 25.4481C52.3203 25.2625 52.5486 25.0835 52.7835 24.9143C58.634 20.6779 65.8432 22.9365 66.7715 23.2437H66.7698Z" fill="#51D36A"/>
<path d="M66.7698 23.2437C66.6236 25.5303 65.996 29.9818 62.7989 33.9603C58.5223 39.2824 50.5689 42.6055 47.7463 40.4307C47.6872 40.3879 47.633 40.3419 47.5804 40.2927C47.3783 40.1071 47.2025 39.8837 47.0563 39.6274C45.7666 37.3951 46.5585 32.6922 49.1231 28.8057C49.938 27.5655 50.9336 26.4124 52.0985 25.4481C52.3203 25.2625 52.5486 25.0835 52.7835 24.9143C58.634 20.6779 65.8432 22.9365 66.7715 23.2437H66.7698Z" fill="#51D36A"/>
<path d="M35.4344 34.3391C33.3906 37.1218 24.7717 36.0541 20.1699 30.9767C15.5023 25.827 16.9054 18.693 17.1026 17.7731C19.3057 17.6713 23.6332 17.806 27.775 20.4457C33.43 24.0513 37.4946 31.5335 35.4344 34.3408V34.3391Z" fill="#51D36A"/>
<path d="M35.4344 34.3391C33.3906 37.1218 24.7717 36.0541 20.1699 30.9767C15.5023 25.827 16.9054 18.693 17.1026 17.7731C19.3057 17.6713 23.6332 17.806 27.775 20.4457C33.43 24.0513 37.4946 31.5335 35.4344 34.3408V34.3391Z" fill="#51D36A"/>
<path d="M38.8239 16.15C37.9301 18.0045 34.4307 17.492 32.658 14.2856C30.8606 11.0331 31.5851 6.35983 31.6854 5.75698C32.5873 5.64363 34.3535 5.64035 35.9882 7.26985C38.2226 9.49563 39.7242 14.2806 38.8222 16.15H38.8239Z" fill="#51D36A"/>
<path d="M38.8239 16.15C37.9301 18.0045 34.4307 17.492 32.658 14.2856C30.8606 11.0331 31.5851 6.35983 31.6854 5.75698C32.5873 5.64363 34.3535 5.64035 35.9882 7.26985C38.2226 9.49563 39.7242 14.2806 38.8222 16.15H38.8239Z" fill="#51D36A"/>
<path d="M44.0597 20.1684C42.6435 20.2078 41.8533 17.9081 43.2547 15.8121C44.6758 13.6882 47.7612 12.6566 48.1605 12.5269C48.5137 13.0426 49.0739 14.1202 48.5925 15.6331C47.937 17.7012 45.4858 20.1274 44.0581 20.1668L44.0597 20.1684Z" fill="#51D36A"/>
<path d="M44.0597 20.1684C42.6435 20.2078 41.8533 17.9081 43.2547 15.8121C44.6758 13.6882 47.7612 12.6566 48.1605 12.5269C48.5137 13.0426 49.0739 14.1202 48.5925 15.6331C47.937 17.7012 45.4858 20.1274 44.0581 20.1668L44.0597 20.1684Z" fill="#51D36A"/>
<path d="M41.6511 8.66986C40.4386 9.40248 38.6166 7.79105 38.8022 5.27781C38.9912 2.72843 41.1664 0.310459 41.4506 0C42.0125 0.274321 43.0311 0.936306 43.3597 2.49024C43.8082 4.61254 42.8734 7.93231 41.6511 8.66986Z" fill="#51D36A"/>
<path d="M41.6511 8.66986C40.4386 9.40248 38.6166 7.79105 38.8022 5.27781C38.9912 2.72843 41.1664 0.310459 41.4506 0C42.0125 0.274321 43.0311 0.936306 43.3597 2.49024C43.8082 4.61254 42.8734 7.93231 41.6511 8.66986Z" fill="#51D36A"/>
<path d="M77.6987 69.2714C73.6587 63.2314 70.9824 62.1308 69.2195 62.4429C68.7496 62.5284 68.3635 62.7074 68.0218 62.962C67.5289 63.3267 67.1297 63.8441 66.7075 64.4338C65.8515 65.633 64.9019 67.1343 62.8647 68.2875C59.569 70.1519 53.9452 70.8106 51.7157 67.7602C51.6254 67.6353 51.54 67.5056 51.4628 67.3725C51.2459 67.0013 51.0832 66.5939 50.9666 66.1619C50.4129 64.0774 51.0109 61.3867 52.5504 58.972C53.3505 57.9224 57.0766 53.2639 62.5788 53.0602C69.3493 52.8089 76.5256 59.3827 77.697 69.2714H77.6987Z" fill="#51D36A"/>
<path d="M77.6987 69.2714C73.6587 63.2314 70.9824 62.1308 69.2195 62.4429C68.7496 62.5284 68.3635 62.7074 68.0218 62.962C67.5289 63.3267 67.1297 63.8441 66.7075 64.4338C65.8515 65.633 64.9019 67.1343 62.8647 68.2875C59.569 70.1519 53.9452 70.8106 51.7157 67.7602C51.6254 67.6353 51.54 67.5056 51.4628 67.3725C51.2459 67.0013 51.0832 66.5939 50.9666 66.1619C50.4129 64.0774 51.0109 61.3867 52.5504 58.972C53.3505 57.9224 57.0766 53.2639 62.5788 53.0602C69.3493 52.8089 76.5256 59.3827 77.697 69.2714H77.6987Z" fill="#51D36A"/>
<path d="M37.3616 57.2939C36.4185 56.057 32.0352 50.5755 25.5588 50.3357C17.5906 50.04 9.1459 57.7769 7.76749 69.415C12.5238 62.3073 15.6716 61.0096 17.7483 61.3792C20.7335 61.9114 20.837 65.7732 25.2253 68.2569C29.1042 70.4531 35.7236 71.2285 38.3441 67.636C40.1874 65.1113 39.6814 60.934 37.3616 57.2939Z" fill="#51D36A"/>
<path d="M37.3616 57.2939C36.4185 56.057 32.0352 50.5755 25.5588 50.3357C17.5906 50.04 9.1459 57.7769 7.76749 69.415C12.5238 62.3073 15.6716 61.0096 17.7483 61.3792C20.7335 61.9114 20.837 65.7732 25.2253 68.2569C29.1042 70.4531 35.7236 71.2285 38.3441 67.636C40.1874 65.1113 39.6814 60.934 37.3616 57.2939Z" fill="#51D36A"/>
<path d="M53.2403 27.432C53.2403 28.6952 52.2151 29.7202 50.9517 29.7202C50.2042 29.7202 49.5388 29.3621 49.1215 28.8069C49.9364 27.5667 50.932 26.4136 52.0968 25.4493C52.7803 25.8452 53.2419 26.586 53.2419 27.432H53.2403Z" fill="#8A912D"/>
<path d="M51.4842 32.854C52.0522 32.854 52.5127 32.3936 52.5127 31.8257C52.5127 31.2577 52.0522 30.7974 51.4842 30.7974C50.9162 30.7974 50.4557 31.2577 50.4557 31.8257C50.4557 32.3936 50.9162 32.854 51.4842 32.854Z" fill="#8A912D"/>
<path d="M58.7542 31.4543C59.4647 31.4543 60.0406 30.8785 60.0406 30.1681C60.0406 29.4578 59.4647 28.882 58.7542 28.882C58.0437 28.882 57.4678 29.4578 57.4678 30.1681C57.4678 30.8785 58.0437 31.4543 58.7542 31.4543Z" fill="#737525"/>
<path d="M22.6164 28.5413C23.1662 28.5413 23.612 28.0956 23.612 27.5459C23.612 26.9961 23.1662 26.5504 22.6164 26.5504C22.0665 26.5504 21.6207 26.9961 21.6207 27.5459C21.6207 28.0956 22.0665 28.5413 22.6164 28.5413Z" fill="#8A912D"/>
<path d="M58.8839 66.8395C60.0726 66.8395 61.0362 65.8761 61.0362 64.6876C61.0362 63.4992 60.0726 62.5358 58.8839 62.5358C57.6953 62.5358 56.7317 63.4992 56.7317 64.6876C56.7317 65.8761 57.6953 66.8395 58.8839 66.8395Z" fill="#D8DB3B"/>
<path d="M60.8866 61.2997C61.4818 61.2997 61.9643 60.8172 61.9643 60.2221C61.9643 59.627 61.4818 59.1445 60.8866 59.1445C60.2913 59.1445 59.8088 59.627 59.8088 60.2221C59.8088 60.8172 60.2913 61.2997 60.8866 61.2997Z" fill="#8A912D"/>
<path d="M68.0234 62.9643C67.5306 63.329 67.1313 63.8464 66.7091 64.4361C66.277 64.2949 65.9648 63.8875 65.9648 63.4111C65.9648 62.8148 66.4479 62.3319 67.0426 62.3319C67.4796 62.3319 67.8559 62.5914 68.0234 62.9643Z" fill="#8A912D"/>
<path d="M102.604 23.2754C102.421 23.236 100.634 30.4948 97.1426 45.4905C97.5107 45.5743 97.8771 45.6564 98.2451 45.7402C101.365 30.6591 102.786 23.3165 102.604 23.2771V23.2754Z" fill="#48C15C"/>
<path d="M104.181 30.1832C103.084 30.6875 101.222 31.7684 100.309 33.8365C100.197 34.0878 100.108 34.3375 100.036 34.5822C100.135 34.6446 100.232 34.7054 100.33 34.7678C100.407 34.5526 100.522 34.2586 100.687 33.9219C101.308 32.6406 102.103 31.8111 102.486 31.4448C102.87 31.0768 103.429 30.612 104.181 30.1832Z" fill="#48C15C"/>
<path d="M98.7938 28.0262C99.5036 29.0036 100.598 30.8565 100.381 33.1069C100.355 33.3796 100.31 33.6408 100.254 33.8905L99.9061 33.9085C99.9439 33.6819 99.9883 33.3698 100.01 32.9969C100.095 31.576 99.8091 30.4639 99.6531 29.9563C99.4986 29.4471 99.2391 28.7687 98.7922 28.0262H98.7938Z" fill="#48C15C"/>
<path d="M100.928 24.1505C101.324 24.6942 101.932 25.7274 101.812 26.9808C101.797 27.1335 101.773 27.2781 101.741 27.4177L101.548 27.4276C101.569 27.3011 101.594 27.1286 101.605 26.92C101.653 26.1282 101.493 25.509 101.406 25.2264C101.319 24.9439 101.176 24.5644 100.927 24.1521L100.928 24.1505Z" fill="#48C15C"/>
<path d="M103.511 25.6263C102.988 25.8662 102.105 26.3803 101.669 27.3626C101.617 27.4825 101.574 27.6008 101.539 27.7174L101.679 27.8061C101.715 27.7043 101.771 27.5647 101.848 27.4037C102.144 26.7943 102.522 26.4 102.704 26.2259C102.887 26.0518 103.153 25.83 103.511 25.6263Z" fill="#48C15C"/>
<path d="M96.2229 34.23C97.1742 34.9741 98.7349 36.4574 99.1457 38.6799C99.195 38.9493 99.2245 39.2138 99.2393 39.4684C99.1292 39.5061 99.0191 39.5439 98.9107 39.5817C98.8844 39.3534 98.8417 39.0413 98.7596 38.6766C98.4523 37.2869 97.8708 36.2964 97.5816 35.8496C97.2925 35.4028 96.8571 34.8213 96.2229 34.23Z" fill="#48C15C"/>
<path d="M104.184 37.1938C102.99 37.3778 100.903 37.9051 99.4559 39.643C99.2801 39.8533 99.1257 40.0685 98.9893 40.2853C99.0665 40.3724 99.1438 40.4578 99.221 40.5448C99.3541 40.3592 99.5463 40.1079 99.796 39.8286C100.746 38.7675 101.738 38.1876 102.208 37.9412C102.678 37.6932 103.343 37.3992 104.184 37.1938Z" fill="#48C15C"/>
<path d="M107.812 28.828C107.634 29.3668 107.204 30.3934 106.189 31.1458C104.832 32.1527 102.717 32.45 102.178 31.7519C102.167 31.7388 102.157 31.724 102.147 31.7092C102.111 31.6517 102.081 31.5876 102.063 31.517C101.894 30.901 102.379 29.8251 103.236 29.0547C103.509 28.8083 103.82 28.5947 104.16 28.4371C104.225 28.4058 104.291 28.3779 104.357 28.3516C106.023 27.7028 107.608 28.6966 107.812 28.828Z" fill="#51D36A"/>
<path d="M107.812 28.828C107.634 29.3668 107.204 30.3934 106.189 31.1458C104.832 32.1527 102.717 32.45 102.178 31.7519C102.167 31.7388 102.157 31.724 102.147 31.7092C102.111 31.6517 102.081 31.5876 102.063 31.517C101.894 30.901 102.379 29.8251 103.236 29.0547C103.509 28.8083 103.82 28.5947 104.16 28.4371C104.225 28.4058 104.291 28.3779 104.357 28.3516C106.023 27.7028 107.608 28.6966 107.812 28.828Z" fill="#51D36A"/>
<path d="M99.6135 29.5233C98.9498 30.0621 96.952 29.2654 96.1683 27.7624C95.3732 26.2363 96.1568 24.6167 96.2603 24.4081C96.7943 24.5214 97.8228 24.8253 98.6492 25.7173C99.7779 26.9345 100.282 28.9812 99.6135 29.5249V29.5233Z" fill="#51D36A"/>
<path d="M99.6135 29.5233C98.9498 30.0621 96.952 29.2654 96.1683 27.7624C95.3732 26.2363 96.1568 24.6167 96.2603 24.4081C96.7943 24.5214 97.8228 24.8253 98.6492 25.7173C99.7779 26.9345 100.282 28.9812 99.6135 29.5249V29.5233Z" fill="#51D36A"/>
<path d="M101.564 25.3798C101.234 25.7675 100.427 25.4258 100.204 24.547C99.9769 23.655 100.444 22.5824 100.504 22.4427C100.728 22.4723 101.15 22.5824 101.441 23.0752C101.837 23.7486 101.896 24.9888 101.564 25.3798Z" fill="#51D36A"/>
<path d="M101.564 25.3798C101.234 25.7675 100.427 25.4258 100.204 24.547C99.9769 23.655 100.444 22.5824 100.504 22.4427C100.728 22.4723 101.15 22.5824 101.441 23.0752C101.837 23.7486 101.896 24.9888 101.564 25.3798Z" fill="#51D36A"/>
<path d="M102.566 26.6702C102.225 26.5914 102.18 25.9902 102.647 25.5762C103.12 25.1557 103.923 25.1031 104.027 25.0966C104.079 25.2428 104.145 25.5351 103.936 25.867C103.651 26.3203 102.911 26.7491 102.566 26.6686V26.6702Z" fill="#51D36A"/>
<path d="M102.566 26.6702C102.225 26.5914 102.18 25.9902 102.647 25.5762C103.12 25.1557 103.923 25.1031 104.027 25.0966C104.079 25.2428 104.145 25.5351 103.936 25.867C103.651 26.3203 102.911 26.7491 102.566 26.6686V26.6702Z" fill="#51D36A"/>
<path d="M102.711 23.7652C102.374 23.8637 102.039 23.3644 102.241 22.7747C102.446 22.1767 103.118 21.7332 103.205 21.6774C103.324 21.7776 103.526 22.001 103.506 22.3936C103.481 22.9291 103.049 23.6666 102.709 23.7668L102.711 23.7652Z" fill="#51D36A"/>
<path d="M102.711 23.7652C102.374 23.8637 102.039 23.3644 102.241 22.7747C102.446 22.1767 103.118 21.7332 103.205 21.6774C103.324 21.7776 103.526 22.001 103.506 22.3936C103.481 22.9291 103.049 23.6666 102.709 23.7668L102.711 23.7652Z" fill="#51D36A"/>
<path d="M107.547 40.5369C106.958 38.8368 106.386 38.4064 105.944 38.3703C105.826 38.3604 105.722 38.3802 105.625 38.4196C105.484 38.4754 105.356 38.5756 105.218 38.689C104.938 38.9222 104.616 39.2228 104.056 39.3707C103.149 39.6105 101.761 39.4167 101.419 38.5461C101.406 38.5099 101.393 38.4738 101.383 38.4377C101.355 38.3358 101.34 38.2274 101.34 38.1173C101.339 37.5835 101.651 36.9757 102.17 36.4944C102.428 36.294 103.611 35.4103 104.942 35.7059C106.578 36.0706 107.886 38.0943 107.547 40.5353V40.5369Z" fill="#51D36A"/>
<path d="M107.547 40.5369C106.958 38.8368 106.386 38.4064 105.944 38.3703C105.826 38.3604 105.722 38.3802 105.625 38.4196C105.484 38.4754 105.356 38.5756 105.218 38.689C104.938 38.9222 104.616 39.2228 104.056 39.3707C103.149 39.6105 101.761 39.4167 101.419 38.5461C101.406 38.5099 101.393 38.4738 101.383 38.4377C101.355 38.3358 101.34 38.2274 101.34 38.1173C101.339 37.5835 101.651 36.9757 102.17 36.4944C102.428 36.294 103.611 35.4103 104.942 35.7059C106.578 36.0706 107.886 38.0943 107.547 40.5353V40.5369Z" fill="#51D36A"/>
<path d="M98.6361 35.141C98.4883 34.7861 97.7818 33.1977 96.2457 32.7345C94.3563 32.1645 91.8492 33.4885 90.7895 36.189C92.3733 34.7845 93.2095 34.6712 93.6827 34.8896C94.3645 35.2034 94.1477 36.1347 95.0431 37.0053C95.8349 37.7741 97.3711 38.3737 98.2237 37.6788C98.8234 37.1893 98.9647 36.1577 98.6361 35.141Z" fill="#51D36A"/>
<path d="M98.6361 35.141C98.4883 34.7861 97.7818 33.1977 96.2457 32.7345C94.3563 32.1645 91.8492 33.4885 90.7895 36.189C92.3733 34.7845 93.2095 34.6712 93.6827 34.8896C94.3645 35.2034 94.1477 36.1347 95.0431 37.0053C95.8349 37.7741 97.3711 38.3737 98.2237 37.6788C98.8234 37.1893 98.9647 36.1577 98.6361 35.141Z" fill="#51D36A"/>
<path d="M104.311 28.9846C104.232 29.2869 103.921 29.4692 103.619 29.3887C103.44 29.3411 103.304 29.2146 103.238 29.0553C103.511 28.8089 103.821 28.5953 104.161 28.4376C104.301 28.5756 104.365 28.7809 104.311 28.9846Z" fill="#8A912D"/>
<path d="M103.614 30.1822C103.755 30.1822 103.869 30.0682 103.869 29.9276C103.869 29.787 103.755 29.673 103.614 29.673C103.474 29.673 103.36 29.787 103.36 29.9276C103.36 30.0682 103.474 30.1822 103.614 30.1822Z" fill="#8A912D"/>
<path d="M105.459 30.303C105.635 30.303 105.778 30.1603 105.778 29.9843C105.778 29.8083 105.635 29.6656 105.459 29.6656C105.283 29.6656 105.14 29.8083 105.14 29.9843C105.14 30.1603 105.283 30.303 105.459 30.303Z" fill="#737525"/>
<path d="M96.9686 27.3398C97.1047 27.3398 97.215 27.2295 97.215 27.0934C97.215 26.9574 97.1047 26.847 96.9686 26.847C96.8325 26.847 96.7222 26.9574 96.7222 27.0934C96.7222 27.2295 96.8325 27.3398 96.9686 27.3398Z" fill="#8A912D"/>
<path d="M103.328 38.7929C103.622 38.7929 103.861 38.5547 103.861 38.2607C103.861 37.9668 103.622 37.7285 103.328 37.7285C103.034 37.7285 102.796 37.9668 102.796 38.2607C102.796 38.5547 103.034 38.7929 103.328 38.7929Z" fill="#D8DB3B"/>
<path d="M104.087 37.582C104.234 37.582 104.354 37.4629 104.354 37.3159C104.354 37.1689 104.234 37.0498 104.087 37.0498C103.94 37.0498 103.821 37.1689 103.821 37.3159C103.821 37.4629 103.94 37.582 104.087 37.582Z" fill="#8A912D"/>
<path d="M105.625 38.4198C105.484 38.4756 105.356 38.5758 105.218 38.6891C105.122 38.6284 105.073 38.5117 105.104 38.3968C105.142 38.2538 105.288 38.1684 105.43 38.2062C105.535 38.2341 105.609 38.3196 105.625 38.4198Z" fill="#8A912D"/>
<path d="M28.7015 55.4122C32.7384 55.4122 36.0109 52.1403 36.0109 48.1041C36.0109 44.068 32.7384 40.796 28.7015 40.796C24.6646 40.796 21.3921 44.068 21.3921 48.1041C21.3921 52.1403 24.6646 55.4122 28.7015 55.4122Z" fill="#333333"/>
<path d="M28.7015 53.1555C31.4917 53.1555 33.7535 50.894 33.7535 48.1043C33.7535 45.3147 31.4917 43.0532 28.7015 43.0532C25.9114 43.0532 23.6495 45.3147 23.6495 48.1043C23.6495 50.894 25.9114 53.1555 28.7015 53.1555Z" fill="#58595B"/>
<path d="M27.3725 47.403C30.2394 50.8739 34.2975 56.3587 37.8544 63.7785C42.5253 73.5161 41.9404 77.4239 46.3582 82.6295C51.1917 88.3278 59.3324 92.4196 67.4239 92.257C79.6653 92.0106 91.3153 82.0365 95.3964 67.4318C94.7474 67.3496 94.0968 67.2675 93.4478 67.1854C89.7003 80.8029 78.8471 90.1544 67.3286 90.4698C59.7481 90.6768 52.1118 86.9611 47.5149 81.6406C43.0954 76.5254 43.7262 72.524 39.4809 63.3432C35.9815 55.7789 31.7296 50.23 28.6014 46.6556C28.1907 46.9053 27.7816 47.1534 27.3709 47.403H27.3725Z" fill="#6D6E71"/>
<path d="M86.7018 23.9926C85.3628 25.8702 80.7708 32.7709 80.9351 42.6826C81.1651 56.673 90.6679 64.5067 91.7029 65.3281C91.4614 65.7404 91.2199 66.151 90.98 66.5633C89.94 65.7469 79.9067 57.5666 79.698 42.8912C79.5485 32.3028 84.6071 25.0127 85.9855 23.1483C86.2254 23.4308 86.4653 23.7117 86.7035 23.9943L86.7018 23.9926Z" fill="#6D6E71"/>
<path d="M28.6097 50.2915C29.8074 50.2915 30.7783 49.3208 30.7783 48.1232C30.7783 46.9257 29.8074 45.955 28.6097 45.955C27.4119 45.955 26.441 46.9257 26.441 48.1232C26.441 49.3208 27.4119 50.2915 28.6097 50.2915Z" fill="#818284"/>
<path d="M87.8856 22.177L86.0955 22.7167C85.7028 22.8351 85.4805 23.2493 85.5989 23.6419L85.9167 24.6956C86.0351 25.0882 86.4494 25.3105 86.8421 25.1921L88.6321 24.6524C89.0248 24.534 89.2471 24.1198 89.1287 23.7272L88.8109 22.6735C88.6925 22.2809 88.2782 22.0586 87.8856 22.177Z" fill="#6D6E71"/>
<path d="M117.376 29.792C117.916 32.0342 119.6 40.1489 115.747 49.2836C110.311 62.1767 98.569 65.8973 97.3023 66.2734C97.373 66.7449 97.4419 67.2163 97.5126 67.6894C98.7826 67.3198 111.146 63.4777 116.817 49.939C120.91 40.1719 118.938 31.5217 118.356 29.2762C118.029 29.4487 117.701 29.6196 117.374 29.792H117.376Z" fill="#6D6E71"/>
<path d="M115.374 29.6782L116.87 30.7998C117.198 31.0458 117.663 30.9793 117.909 30.6513L118.57 29.7708C118.816 29.4428 118.749 28.9774 118.421 28.7313L116.926 27.6098C116.597 27.3637 116.132 27.4302 115.886 27.7583L115.225 28.6387C114.979 28.9668 115.046 29.4321 115.374 29.6782Z" fill="#6D6E71"/>
<path d="M100.034 66.366L96.6613 69.0763L94.9723 70.4331L92.2976 69.8664L91.3037 67.9412L89.3207 64.0958L100.034 66.366Z" fill="#58595B"/>
<path d="M95.9204 17.4247L95.7315 17.389L94.7584 22.543L94.9473 22.5786L95.9204 17.4247Z" fill="#6D6E71"/>
<path d="M95.7474 17.3967L95.7117 17.5856L100.867 18.5585L100.902 18.3696L95.7474 17.3967Z" fill="#6D6E71"/>
<path d="M110.401 25.5101L110.59 25.5446L111.53 20.3845L111.341 20.35L110.401 25.5101Z" fill="#6D6E71"/>
<path d="M106.37 19.4925L106.336 19.6815L111.497 20.6211L111.531 20.4321L106.37 19.4925Z" fill="#6D6E71"/>
<path d="M91.3703 40.398L91.1816 40.3615L90.1834 45.5106L90.3721 45.5471L91.3703 40.398Z" fill="#6D6E71"/>
<path d="M95.3724 46.5622L95.409 46.3735L90.259 45.3754L90.2224 45.5641L95.3724 46.5622Z" fill="#6D6E71"/>
<path d="M105.767 48.5208L105.956 48.5586L106.988 43.4162L106.8 43.3784L105.767 48.5208Z" fill="#6D6E71"/>
<path d="M105.935 48.553L105.972 48.3646L100.829 47.3324L100.791 47.5208L105.935 48.553Z" fill="#6D6E71"/>
</svg>
