<svg width="86" height="100" viewBox="0 0 86 100" fill="none" xmlns="http://www.w3.org/2000/svg">
<path fill-rule="evenodd" clip-rule="evenodd" d="M43 21.8446C62.8083 21.8446 78.8734 37.9084 78.8734 57.7118C78.8734 77.5152 62.8083 93.5804 43 93.5804C23.1917 93.5804 7.12509 77.5166 7.12509 57.7118C7.12509 37.9069 23.1931 21.8446 43 21.8446ZM47.4689 15.6576C56.442 16.6009 64.585 20.3494 70.994 26.014L73.3123 23.6975L70.5097 20.8954C70.1211 20.5098 70.1211 19.8755 70.5097 19.4884L73.1003 16.8967C73.4875 16.5112 74.1204 16.5097 74.509 16.8967L83.8222 26.2097C84.2108 26.5968 84.2093 27.2311 83.8222 27.6182L81.2315 30.2084C80.8444 30.5955 80.21 30.5969 79.8228 30.2084L77.0217 27.4077L74.7004 29.7257C81.2919 37.1828 85.2956 46.98 85.2956 57.7118C85.2956 81.0635 66.3572 100 43 100C19.6427 100 0.704346 81.0635 0.704346 57.7118C0.704346 35.8701 17.2743 17.8916 38.5326 15.6576V9.71625H31.4745C30.4014 9.71625 29.5182 8.83617 29.5182 7.75887V1.95738C29.5182 0.880083 30.4014 0 31.4745 0H54.5255C55.6001 0 56.4818 0.883026 56.4818 1.95738V7.75887C56.4818 8.83323 55.6001 9.71625 54.5255 9.71625H47.4689V15.6576Z" fill="#30605A"/>
<path fill-rule="evenodd" clip-rule="evenodd" d="M32.209 37.1384C32.471 37.5873 32.3164 38.1656 31.866 38.4261C31.4156 38.6881 30.8371 38.5336 30.5765 38.0832L27.9285 33.4959C27.6664 33.0455 27.821 32.4672 28.2685 32.2067C28.7218 31.9447 29.2989 32.0992 29.5579 32.551L32.209 37.1384ZM23.3683 45.2917C23.8187 45.5536 23.9733 46.1291 23.7127 46.5794C23.4507 47.0298 22.8737 47.1843 22.4233 46.9238L17.8352 44.2732C17.3833 44.0128 17.2316 43.4358 17.4922 42.9855C17.7542 42.5352 18.3283 42.3821 18.7831 42.6411L23.3683 45.2917ZM68.1678 71.1526C68.6182 71.4146 68.7713 71.99 68.5107 72.4419C68.2487 72.8922 67.6732 73.0452 67.2198 72.7848L62.6346 70.1357C62.1842 69.8737 62.0282 69.2968 62.2887 68.8465C62.5507 68.3961 63.1292 68.2431 63.5796 68.5021L68.1678 71.1526ZM19.7855 56.7681C20.3081 56.7681 20.7305 57.1934 20.7305 57.7129C20.7305 58.2325 20.3081 58.6593 19.7855 58.6593H14.4908C13.9697 58.6593 13.5458 58.2354 13.5458 57.7129C13.5458 57.1905 13.9697 56.7681 14.4908 56.7681H19.7855ZM71.5091 56.7681C72.0317 56.7681 72.4541 57.1934 72.4541 57.7129C72.4541 58.2325 72.0317 58.6593 71.5091 58.6593H66.2145C65.6919 58.6593 65.2694 58.2354 65.2694 57.7129C65.2694 57.1905 65.6919 56.7681 66.2145 56.7681H71.5091ZM22.4218 68.5035C22.8722 68.2431 23.4507 68.3976 23.7113 68.8479C23.9733 69.2983 23.8172 69.8767 23.3668 70.1371L18.7816 72.7862C18.3268 73.0467 17.7512 72.8937 17.4907 72.4433C17.2287 71.9915 17.3818 71.4146 17.8337 71.1541L22.4218 68.5035ZM67.2183 42.6426C67.6717 42.3821 68.2487 42.5366 68.5093 42.987C68.7698 43.4373 68.6167 44.0157 68.1663 44.2747L63.5781 46.9253C63.1277 47.1872 62.5478 47.0312 62.2872 46.5809C62.0252 46.1306 62.1827 45.5536 62.6331 45.2931L67.2183 42.6426ZM30.5751 77.3441C30.8371 76.8938 31.4141 76.7393 31.8645 76.9997C32.3149 77.2617 32.468 77.8401 32.2075 78.289L29.5565 82.8763C29.2959 83.3266 28.7204 83.4797 28.267 83.2192C27.8195 82.9587 27.665 82.3803 27.927 81.9315L30.5751 77.3441ZM56.4406 32.554C56.7026 32.1022 57.2781 31.9491 57.7285 32.2096C58.179 32.4716 58.332 33.0485 58.07 33.4988L55.4234 38.0862C55.1614 38.5365 54.5829 38.6896 54.1325 38.4291C53.6821 38.1671 53.529 37.5902 53.7895 37.1413L56.4406 32.554ZM42.0535 80.9248C42.0535 80.4023 42.4774 79.98 42.9985 79.98C43.5196 79.98 43.9435 80.4023 43.9435 80.9248V86.22C43.9435 86.7425 43.5211 87.1649 42.9985 87.1649C42.476 87.1649 42.0535 86.7425 42.0535 86.22V80.9248ZM42.9985 57.7144L59.5847 86.4452C69.8487 80.523 76.1768 69.5647 76.1768 57.7144C76.1768 39.3989 61.3157 24.5435 42.9985 24.5435V57.7144Z" fill="#95E8D9"/>
</svg>
