<svg width="98" height="100" viewBox="0 0 98 100" fill="none" xmlns="http://www.w3.org/2000/svg">
<path d="M94.1646 49.2908C94.1126 49.2908 94.0653 49.2971 94.0196 49.3098C94.0243 49.2814 94.0243 49.2514 94.0243 49.2215C94.0243 48.5691 93.4963 48.0427 92.8453 48.0427C92.56 48.0427 92.2984 48.1468 92.0935 48.3122C91.9044 47.5999 91.255 47.0704 90.4795 47.0704C89.6284 47.0704 88.9239 47.7071 88.8246 48.5328C88.8072 48.5328 88.7931 48.5281 88.7773 48.5281C88.2588 48.5281 87.8395 48.9473 87.8395 49.4658C87.8395 49.9842 88.2414 50.3829 88.7426 50.4034V50.4081H94.163C94.4719 50.4081 94.7178 50.1576 94.7178 49.8534C94.7178 49.543 94.4688 49.294 94.163 49.294L94.1646 49.2908Z" fill="white"/>
<path d="M94.2528 49.2908C94.2008 49.2908 94.1535 49.2971 94.1078 49.3098C94.1125 49.2814 94.1125 49.2514 94.1125 49.2215C94.1125 48.5691 93.5845 48.0427 92.9336 48.0427C92.6483 48.0427 92.3867 48.1468 92.1818 48.3122C91.9926 47.5999 91.3433 47.0704 90.5678 47.0704C89.7167 47.0704 89.0121 47.7071 88.9128 48.5328C88.8955 48.5328 88.8813 48.5281 88.8655 48.5281C88.347 48.5281 87.9277 48.9473 87.9277 49.4658C87.9277 49.9842 88.3296 50.3829 88.8309 50.4034V50.4081H94.2513C94.5602 50.4081 94.8061 50.1576 94.8061 49.8534C94.8061 49.543 94.557 49.294 94.2513 49.294L94.2528 49.2908Z" fill="white"/>
<path d="M94.3395 49.2908C94.2875 49.2908 94.2402 49.2971 94.1945 49.3098C94.1992 49.2814 94.1992 49.2514 94.1992 49.2215C94.1992 48.5691 93.6712 48.0427 93.0203 48.0427C92.735 48.0427 92.4733 48.1468 92.2684 48.3122C92.0793 47.5999 91.4299 47.0704 90.6545 47.0704C89.8033 47.0704 89.0988 47.7071 88.9995 48.5328C88.9822 48.5328 88.968 48.5281 88.9522 48.5281C88.4337 48.5281 88.0144 48.9473 88.0144 49.4658C88.0144 49.9842 88.4163 50.3829 88.9175 50.4034V50.4081H94.3379C94.6469 50.4081 94.8927 50.1576 94.8927 49.8534C94.8927 49.543 94.6437 49.294 94.3379 49.294L94.3395 49.2908Z" fill="white"/>
<path d="M94.4279 49.2908C94.3759 49.2908 94.3286 49.2971 94.2829 49.3098C94.2877 49.2814 94.2877 49.2514 94.2877 49.2215C94.2877 48.5691 93.7596 48.0427 93.1087 48.0427C92.8234 48.0427 92.5618 48.1468 92.3569 48.3122C92.1677 47.5999 91.5184 47.0704 90.7429 47.0704C89.8918 47.0704 89.1872 47.7071 89.0879 48.5328C89.0706 48.5328 89.0564 48.5281 89.0406 48.5281C88.5221 48.5281 88.1028 48.9473 88.1028 49.4658C88.1028 49.9842 88.5048 50.3829 89.006 50.4034V50.4081H94.4263C94.7353 50.4081 94.9811 50.1576 94.9811 49.8534C94.9811 49.543 94.7321 49.294 94.4263 49.294L94.4279 49.2908Z" fill="white"/>
<path d="M94.5161 49.2908C94.4641 49.2908 94.4168 49.2971 94.3711 49.3098C94.3758 49.2814 94.3759 49.2514 94.3759 49.2215C94.3759 48.5691 93.8478 48.0427 93.1969 48.0427C92.9116 48.0427 92.65 48.1468 92.4451 48.3122C92.2559 47.5999 91.6066 47.0704 90.8311 47.0704C89.98 47.0704 89.2754 47.7071 89.1761 48.5328C89.1588 48.5328 89.1446 48.5281 89.1288 48.5281C88.6103 48.5281 88.191 48.9473 88.191 49.4658C88.191 49.9842 88.593 50.3829 89.0942 50.4034V50.4081H94.5145C94.8235 50.4081 95.0693 50.1576 95.0693 49.8534C95.0693 49.543 94.8203 49.294 94.5145 49.294L94.5161 49.2908Z" fill="white"/>
<path d="M94.6044 49.2908C94.5524 49.2908 94.5051 49.2971 94.4594 49.3098C94.4641 49.2814 94.4641 49.2514 94.4641 49.2215C94.4641 48.5691 93.9361 48.0427 93.2852 48.0427C92.9999 48.0427 92.7382 48.1468 92.5333 48.3122C92.3442 47.5999 91.6948 47.0704 90.9193 47.0704C90.0682 47.0704 89.3637 47.7071 89.2644 48.5328C89.2471 48.5328 89.2329 48.5281 89.2171 48.5281C88.6986 48.5281 88.2793 48.9473 88.2793 49.4658C88.2793 49.9842 88.6812 50.3829 89.1824 50.4034V50.4081H94.6028C94.9118 50.4081 95.1576 50.1576 95.1576 49.8534C95.1576 49.543 94.9086 49.294 94.6028 49.294L94.6044 49.2908Z" fill="white"/>
<path d="M94.6925 49.2908C94.6405 49.2908 94.5932 49.2971 94.5475 49.3098C94.5522 49.2814 94.5522 49.2514 94.5522 49.2215C94.5522 48.5691 94.0242 48.0427 93.3733 48.0427C93.088 48.0427 92.8264 48.1468 92.6215 48.3122C92.4323 47.5999 91.7829 47.0704 91.0075 47.0704C90.1564 47.0704 89.4518 47.7071 89.3525 48.5328C89.3352 48.5328 89.321 48.5281 89.3052 48.5281C88.7867 48.5281 88.3674 48.9473 88.3674 49.4658C88.3674 49.9842 88.7693 50.3829 89.2706 50.4034V50.4081H94.691C94.9999 50.4081 95.2458 50.1576 95.2458 49.8534C95.2458 49.543 94.9967 49.294 94.691 49.294L94.6925 49.2908Z" fill="white"/>
<path d="M94.7792 49.2908C94.7272 49.2908 94.6799 49.2971 94.6342 49.3098C94.6389 49.2814 94.6389 49.2514 94.6389 49.2215C94.6389 48.5691 94.1109 48.0427 93.46 48.0427C93.1747 48.0427 92.913 48.1468 92.7081 48.3122C92.519 47.5999 91.8696 47.0704 91.0942 47.0704C90.243 47.0704 89.5385 47.7071 89.4392 48.5328C89.4219 48.5328 89.4077 48.5281 89.3919 48.5281C88.8733 48.5281 88.4541 48.9473 88.4541 49.4658C88.4541 49.9842 88.856 50.3829 89.3572 50.4034V50.4081H94.7776C95.0865 50.4081 95.3324 50.1576 95.3324 49.8534C95.3324 49.543 95.0834 49.294 94.7776 49.294L94.7792 49.2908Z" fill="white"/>
<path d="M94.8677 49.2908C94.8157 49.2908 94.7684 49.2971 94.7227 49.3098C94.7274 49.2814 94.7274 49.2514 94.7274 49.2215C94.7274 48.5691 94.1994 48.0427 93.5485 48.0427C93.2632 48.0427 93.0015 48.1468 92.7966 48.3122C92.6075 47.5999 91.9581 47.0704 91.1827 47.0704C90.3315 47.0704 89.627 47.7071 89.5277 48.5328C89.5104 48.5328 89.4962 48.5281 89.4804 48.5281C88.9619 48.5281 88.5426 48.9473 88.5426 49.4658C88.5426 49.9842 88.9445 50.3829 89.4457 50.4034V50.4081H94.8661C95.175 50.4081 95.4209 50.1576 95.4209 49.8534C95.4209 49.543 95.1719 49.294 94.8661 49.294L94.8677 49.2908Z" fill="white"/>
<path d="M94.956 49.2908C94.904 49.2908 94.8567 49.2971 94.811 49.3098C94.8157 49.2814 94.8157 49.2514 94.8157 49.2215C94.8157 48.5691 94.2877 48.0427 93.6367 48.0427C93.3514 48.0427 93.0898 48.1468 92.8849 48.3122C92.6957 47.5999 92.0464 47.0704 91.2709 47.0704C90.4198 47.0704 89.7153 47.7071 89.616 48.5328C89.5986 48.5328 89.5845 48.5281 89.5687 48.5281C89.0501 48.5281 88.6309 48.9473 88.6309 49.4658C88.6309 49.9842 89.0328 50.3829 89.534 50.4034V50.4081H94.9544C95.2633 50.4081 95.5092 50.1576 95.5092 49.8534C95.5092 49.543 95.2602 49.294 94.9544 49.294L94.956 49.2908Z" fill="white"/>
<path d="M95.0441 49.2908C94.9921 49.2908 94.9448 49.2971 94.8991 49.3098C94.9038 49.2814 94.9038 49.2514 94.9038 49.2215C94.9038 48.5691 94.3758 48.0427 93.7248 48.0427C93.4396 48.0427 93.1779 48.1468 92.973 48.3122C92.7839 47.5999 92.1345 47.0704 91.359 47.0704C90.5079 47.0704 89.8034 47.7071 89.7041 48.5328C89.6868 48.5328 89.6726 48.5281 89.6568 48.5281C89.1382 48.5281 88.719 48.9473 88.719 49.4658C88.719 49.9842 89.1209 50.3829 89.6221 50.4034V50.4081H95.0425C95.3515 50.4081 95.5973 50.1576 95.5973 49.8534C95.5973 49.543 95.3483 49.294 95.0425 49.294L95.0441 49.2908Z" fill="white"/>
<path d="M95.1323 49.2908C95.0802 49.2908 95.033 49.2971 94.9873 49.3098C94.992 49.2814 94.992 49.2514 94.992 49.2215C94.992 48.5691 94.464 48.0427 93.813 48.0427C93.5278 48.0427 93.2661 48.1468 93.0612 48.3122C92.8721 47.5999 92.2227 47.0704 91.4472 47.0704C90.5961 47.0704 89.8916 47.7071 89.7923 48.5328C89.7749 48.5328 89.7608 48.5281 89.745 48.5281C89.2264 48.5281 88.8072 48.9473 88.8072 49.4658C88.8072 49.9842 89.2091 50.3829 89.7103 50.4034V50.4081H95.1307C95.4396 50.4081 95.6855 50.1576 95.6855 49.8534C95.6855 49.543 95.4365 49.294 95.1307 49.294L95.1323 49.2908Z" fill="white"/>
<path d="M95.2189 49.2908C95.1669 49.2908 95.1196 49.2971 95.0739 49.3098C95.0787 49.2814 95.0787 49.2514 95.0787 49.2215C95.0787 48.5691 94.5507 48.0427 93.8997 48.0427C93.6144 48.0427 93.3528 48.1468 93.1479 48.3122C92.9587 47.5999 92.3094 47.0704 91.5339 47.0704C90.6828 47.0704 89.9783 47.7071 89.879 48.5328C89.8616 48.5328 89.8474 48.5281 89.8317 48.5281C89.3131 48.5281 88.8939 48.9473 88.8939 49.4658C88.8939 49.9842 89.2958 50.3829 89.797 50.4034V50.4081H95.2174C95.5263 50.4081 95.7722 50.1576 95.7722 49.8534C95.7722 49.543 95.5231 49.294 95.2174 49.294L95.2189 49.2908Z" fill="white"/>
<path d="M49 99.929C75.9154 99.929 97.7345 78.1136 97.7345 51.2029C97.7345 24.2923 75.9154 2.47693 49 2.47693C22.0846 2.47693 0.265442 24.2923 0.265442 51.2029C0.265442 78.1136 22.0846 99.929 49 99.929Z" fill="#B0F7E9"/>
<path d="M70.2385 95.1502C70.0383 95.2463 69.8366 95.344 69.6333 95.437C69.493 95.5032 69.3527 95.5694 69.2108 95.6324C68.9208 95.7663 68.6277 95.8956 68.3345 96.0216C68.2179 96.0736 68.1012 96.1241 67.983 96.1713C67.8695 96.2218 67.7561 96.2675 67.6426 96.3147C67.5323 96.3604 67.4219 96.4061 67.3116 96.4503C67.1366 96.5228 66.9601 96.5921 66.7852 96.6614C66.7757 96.6662 66.7647 96.6693 66.7568 96.6725C66.6071 96.7308 66.4573 96.7891 66.3076 96.8442C66.1768 96.8947 66.0475 96.9435 65.9167 96.9908C65.4959 97.1484 65.0719 97.2981 64.6447 97.4415C64.6353 97.4462 64.6227 97.4494 64.6132 97.4525C64.5738 97.4651 64.5328 97.4793 64.4919 97.4919C64.4398 97.5108 64.3863 97.5266 64.3342 97.5423C64.2208 97.5817 64.1057 97.6211 63.9907 97.6558C63.8346 97.7078 63.6786 97.7582 63.521 97.8055C63.48 97.8181 63.4374 97.8323 63.3964 97.8433C63.2814 97.878 63.1648 97.9142 63.0497 97.9489C62.9362 97.9836 62.8227 98.0167 62.7092 98.0513C62.498 98.1128 62.2884 98.1727 62.0756 98.231C62.063 98.2357 62.0504 98.2389 62.0409 98.2405C61.8266 98.2988 61.6138 98.3571 61.3979 98.4138C61.1772 98.4705 60.9565 98.5273 60.7359 98.5824C59.858 98.7999 58.9706 98.9921 58.0754 99.1608C58.0596 99.1639 58.0454 99.1671 58.0296 99.1686C57.8121 99.208 57.5962 99.249 57.3787 99.2853C57.1549 99.3247 56.9311 99.3625 56.7073 99.3971L56.3022 99.4586L55.9208 99.5153C55.7521 99.539 55.585 99.5626 55.4164 99.5831C55.3864 99.5878 55.3549 99.591 55.325 99.5941C55.1106 99.6225 54.8978 99.6477 54.6835 99.6729C54.6535 99.6776 54.622 99.6808 54.5905 99.684C53.7614 99.7769 52.9292 99.8526 52.0876 99.9046C51.8086 99.9219 51.528 99.9361 51.2459 99.9503C51.2286 99.9503 51.2144 99.9519 51.197 99.9519C51.0536 99.9582 50.9086 99.9629 50.7652 99.9692C50.6469 99.9739 50.5287 99.9771 50.409 99.9802C50.2356 99.9849 50.0622 99.9897 49.8873 99.9912C49.799 99.9928 49.7107 99.9944 49.6225 99.9944C49.4191 99.9976 49.2142 99.9991 49.0093 99.9991C48.6547 99.9991 48.3017 99.996 47.9486 99.9881C47.8209 99.9865 47.6949 99.9834 47.5672 99.9786C47.4994 99.9771 47.4301 99.9755 47.3623 99.9739C47.2709 99.9708 47.1779 99.9676 47.0865 99.9629C46.9525 99.9597 46.8169 99.9534 46.6845 99.9456C46.519 99.9392 46.3535 99.9298 46.1881 99.9203C45.9374 99.9046 45.6884 99.8904 45.4409 99.8715C45.3196 99.8636 45.1982 99.8526 45.0784 99.8431C44.9413 99.8337 44.8073 99.821 44.6734 99.81C44.541 99.799 44.4117 99.7864 44.2809 99.7738C44.128 99.7612 43.972 99.7438 43.8207 99.7265C43.63 99.706 43.4408 99.6871 43.2532 99.6635C43.0799 99.643 42.9065 99.6225 42.7315 99.6004C42.6007 99.5831 42.473 99.5673 42.3422 99.5484C41.9293 99.4917 41.521 99.4318 41.1128 99.3625C40.971 99.3404 40.8307 99.3168 40.6904 99.2916C40.5202 99.2632 40.3516 99.2332 40.1845 99.2017C40.0158 99.1718 39.8472 99.1403 39.6801 99.1072C39.5115 99.0757 39.3444 99.0426 39.1773 99.0063C39.0102 98.9732 38.8432 98.9386 38.6761 98.9007C38.3467 98.8298 38.0204 98.7573 37.6926 98.6785C37.3584 98.5998 37.0243 98.5162 36.6933 98.4296C36.5294 98.3854 36.3655 98.3429 36.2015 98.2972C36.0392 98.2531 35.8753 98.2089 35.7145 98.1617C35.5506 98.116 35.3883 98.0703 35.2275 98.0214C35.0652 97.9741 34.9044 97.9269 34.7436 97.8764C34.5828 97.8276 34.4236 97.7771 34.2613 97.7267C34.1005 97.6763 33.9429 97.6243 33.7821 97.5707C33.6214 97.5187 33.4638 97.4651 33.3046 97.4115C33.1454 97.3564 32.9878 97.3012 32.8286 97.2461C32.5118 97.1358 32.1966 97.0207 31.8829 96.9025C31.7253 96.8442 31.5708 96.7843 31.4132 96.7245C31.1027 96.6047 30.7938 96.4818 30.4864 96.3557C30.4833 96.3541 30.4817 96.3541 30.4801 96.3526C30.3272 96.2895 30.1744 96.2249 30.0215 96.1603C29.878 96.0988 29.733 96.0374 29.5896 95.9743C29.4115 95.8971 29.2334 95.8183 29.0569 95.7395L28.6518 95.5536C28.5068 95.4874 28.3618 95.4196 28.2152 95.3503C28.0119 95.2557 27.8101 95.158 27.6084 95.0588C27.3562 94.9374 27.1072 94.8114 26.8581 94.6853C26.71 94.6096 26.5618 94.5356 26.4152 94.4568C26.2686 94.3796 26.1221 94.3008 25.9755 94.2236C25.6839 94.066 25.3939 93.9084 25.1055 93.7445C24.8076 93.5774 24.5128 93.4072 24.2197 93.2339C24.0873 93.1551 23.9564 93.0763 23.8256 92.9991C23.7184 92.9345 23.6113 92.8683 23.5072 92.8037C23.3512 92.7091 23.1983 92.613 23.0439 92.5169C22.7365 92.323 22.4323 92.1261 22.1297 91.9259C21.9799 91.8251 21.8287 91.7258 21.6789 91.6234C21.5292 91.5209 21.3794 91.4201 21.2313 91.3161C20.6355 90.9016 20.0507 90.4745 19.4739 90.0349C19.3351 89.9293 19.198 89.8237 19.0609 89.7181C19.0546 89.7118 19.0452 89.7071 19.0389 89.7008C19.0058 89.6756 18.9742 89.6488 18.9396 89.6236C18.8765 89.5732 18.8103 89.5227 18.7473 89.4707C18.6685 89.4093 18.5897 89.3478 18.514 89.2832C18.4651 89.2469 18.4178 89.206 18.3705 89.1681C18.3311 89.1366 18.2902 89.1035 18.2508 89.0689C18.2429 89.0641 18.235 89.0578 18.2271 89.05C18.224 89.0468 18.2208 89.0452 18.2177 89.0421C18.2114 89.0374 18.2051 89.0326 18.1988 89.0263C18.0412 88.8987 17.8851 88.7695 17.7291 88.6387C17.5809 88.5142 17.4296 88.3881 17.283 88.2589C17.2673 88.2478 17.2546 88.2337 17.2389 88.2226C17.179 88.1706 17.1207 88.1202 17.0624 88.0682C16.8906 87.9201 16.7203 87.7688 16.5501 87.6175C16.3184 87.411 16.0899 87.2015 15.8598 86.9903C10.2502 81.782 5.86695 75.2658 3.2001 67.9301C2.75878 66.7182 2.36475 65.4843 2.02115 64.2299C1.80679 63.453 1.61135 62.6698 1.4364 61.8787H1.43956C2.67211 61.7732 3.93618 61.6944 5.22389 61.6487C6.82999 61.5935 8.47708 61.5856 10.162 61.6392C12.0928 61.6991 14.074 61.8362 16.0993 62.0647C17.8252 62.2601 19.581 62.5201 21.3668 62.8542C21.7262 62.9204 22.0887 62.9913 22.4512 63.067C24.2039 63.4215 25.9061 63.8328 27.5611 64.2946C29.2665 64.7705 30.9214 65.3 32.526 65.8752H32.5275C34.3653 66.5323 36.1353 67.2525 37.8439 68.0231C42.8655 70.2876 47.3418 72.9902 51.2932 75.8772C51.2932 75.8772 51.2937 75.8778 51.2948 75.8788C52.1317 76.4902 52.945 77.108 53.7346 77.7336C53.9789 77.9274 54.2201 78.1197 54.4597 78.3151C55.284 78.9833 56.0831 79.6578 56.857 80.3354C59.0352 82.2406 61.007 84.1711 62.777 86.0558C63.2341 86.5412 63.677 87.025 64.1057 87.5024C66.5582 90.2319 68.5804 92.8289 70.1928 95.0871C70.2085 95.1076 70.2212 95.125 70.2338 95.1454L70.2385 95.1502Z" fill="#37A547"/>
<g opacity="0.23">
<path d="M18.9414 89.6267C18.1233 88.9837 17.3258 88.3171 16.5519 87.6237C16.3202 87.4157 16.0901 87.2077 15.8631 86.995C14.9616 83.0127 13.0828 78.0944 9.19759 73.4582C7.28729 71.1779 5.23041 69.3704 3.20191 67.9364C2.76058 66.7245 2.36813 65.489 2.02295 64.2346C4.98926 65.8909 8.16208 68.2373 11.0354 71.5672C16.5015 77.9022 18.3456 84.8534 18.9414 89.6283V89.6267Z" fill="#006E00"/>
<path d="M25.2678 91.1439C24.4308 90.9942 23.5955 90.8445 22.7586 90.6948C22.7901 88.1387 22.6136 78.3746 15.2766 69.6175C12.0644 65.7834 8.43608 63.2824 5.22546 61.653C6.83156 61.5963 8.47865 61.59 10.1636 61.642C12.5041 63.1737 14.8983 65.1577 17.1144 67.7264C25.4947 77.4385 25.3623 88.5989 25.2678 91.1439Z" fill="#006E00"/>
<path d="M32.9486 89.7048C32.1116 89.5551 31.2762 89.4054 30.4393 89.2557C30.4724 86.7012 30.2943 76.9355 22.9573 68.1784C20.7775 65.5766 18.4054 63.5879 16.1011 62.0703C17.8254 62.2641 19.5828 62.5242 21.367 62.8598C22.5333 63.8668 23.6855 65.0046 24.7935 66.2874C33.1755 76.001 33.0416 87.1598 32.947 89.7048H32.9486Z" fill="#006E00"/>
<path d="M39.8284 88.2643C38.9915 88.1146 38.1561 87.9649 37.3192 87.8152C37.3523 85.2591 37.1742 75.495 29.8372 66.7379C29.098 65.8554 28.3367 65.0438 27.5644 64.2969C29.2698 64.7728 30.9247 65.3023 32.5308 65.879C40.0459 75.3359 39.9198 85.8091 39.8284 88.2643Z" fill="#006E00"/>
</g>
<path d="M96.9891 59.8215C94.4609 74.1304 85.6881 86.2836 73.5848 93.3624C73.2318 93.5689 72.8771 93.7721 72.5178 93.9676C72.4547 94.0038 72.3901 94.04 72.3271 94.0747C72.0402 94.2339 71.7502 94.3867 71.4602 94.538C71.0567 94.7492 70.65 94.9525 70.2387 95.151C70.0385 95.2472 69.8368 95.3449 69.6335 95.4378C69.4932 95.504 69.3529 95.5702 69.211 95.6332C68.921 95.7672 68.6278 95.8964 68.3347 96.0225C68.218 96.0745 68.1014 96.1249 67.9832 96.1722C67.8697 96.2226 67.7562 96.2683 67.6428 96.3156C67.5324 96.3613 67.4221 96.407 67.3118 96.4511C67.1368 96.5236 66.9603 96.593 66.7853 96.6623C66.7759 96.667 66.7649 96.6702 66.757 96.6733C66.6073 96.7316 66.4575 96.7899 66.3078 96.8451C66.1769 96.8955 66.0477 96.9444 65.9169 96.9916C65.4961 97.1492 65.0721 97.2989 64.6449 97.4424C64.6355 97.4471 64.6229 97.4502 64.6134 97.4534C64.574 97.466 64.533 97.4802 64.492 97.4928C64.44 97.5117 64.388 97.5274 64.3344 97.5448C64.2209 97.5826 64.1059 97.622 63.9908 97.6567C63.8632 97.7008 63.737 97.7402 63.6094 97.7796C63.5794 97.789 63.5511 97.7985 63.5211 97.8064C63.4802 97.819 63.4376 97.8332 63.3966 97.8442C63.2816 97.8804 63.1649 97.9167 63.0499 97.9514C62.9364 97.986 62.8229 98.0191 62.7094 98.0522C62.4982 98.1137 62.2886 98.1736 62.0758 98.2319C62.0632 98.2366 62.0506 98.2397 62.0411 98.2413C61.8268 98.2996 61.614 98.3579 61.3981 98.4147C61.1774 98.4714 60.9567 98.5281 60.7361 98.5833C59.8581 98.8008 58.9708 98.993 58.0755 99.1616C58.0598 99.1648 58.0456 99.1679 58.0298 99.1695C57.8123 99.2089 57.5964 99.2499 57.3789 99.2861C57.1551 99.3255 56.9313 99.3633 56.7074 99.398L56.3024 99.4595L55.921 99.5162C55.7523 99.5398 55.5852 99.5635 55.4166 99.584C55.3866 99.5887 55.3551 99.5918 55.3252 99.595C55.1108 99.6234 54.898 99.6486 54.6837 99.6738C54.6537 99.6785 54.6222 99.6817 54.5907 99.6848C53.7616 99.7778 52.9294 99.8534 52.0877 99.9054C51.8088 99.9228 51.5282 99.937 51.2461 99.9511C51.2287 99.9511 51.2145 99.9527 51.1972 99.9527C51.0538 99.959 50.9088 99.9637 50.7653 99.9701C50.6471 99.9748 50.5289 99.9779 50.4091 99.9811C50.2357 99.9858 50.0624 99.9905 49.8874 99.9921C49.7992 99.9937 49.7109 99.9953 49.6226 99.9953C49.4193 99.9984 49.2144 100 49.0095 100C48.6549 100 48.3018 99.9968 47.9488 99.989C47.8211 99.9874 47.695 99.9842 47.5674 99.9795C47.4996 99.9779 47.4302 99.9764 47.3624 99.9748C47.271 99.9716 47.178 99.9685 47.0866 99.9638C46.9527 99.9606 46.8171 99.9543 46.6847 99.9464C46.5192 99.9401 46.3537 99.9307 46.1882 99.9212C45.9376 99.9054 45.6885 99.8913 45.4411 99.8723C45.3197 99.8645 45.1984 99.8534 45.0786 99.844C44.9415 99.8345 44.8075 99.8219 44.6735 99.8109C44.5411 99.7999 44.4119 99.7873 44.2811 99.7746C44.1282 99.762 43.9722 99.7447 43.8208 99.7274C43.6301 99.7069 43.441 99.688 43.2534 99.6643C43.08 99.6438 42.9067 99.6234 42.7317 99.6013C42.6009 99.584 42.4732 99.5682 42.3424 99.5493C41.9294 99.4926 41.5212 99.4327 41.113 99.3633C40.9711 99.3413 40.8309 99.3176 40.6906 99.2924C40.5204 99.2641 40.3517 99.2341 40.1847 99.2026C40.016 99.1727 39.8474 99.1411 39.6803 99.1081C39.5116 99.0765 39.3445 99.0434 39.1775 99.0072C39.0104 98.9741 38.8433 98.9394 38.6763 98.9016C38.3469 98.8307 38.0206 98.7582 37.6928 98.6794C37.3586 98.6006 37.0245 98.5171 36.6935 98.4304C36.5295 98.3863 36.3656 98.3438 36.2017 98.2981C36.0394 98.2539 35.8754 98.2098 35.7147 98.1625C35.5508 98.1168 35.3884 98.0711 35.2277 98.0223C35.0653 97.975 34.9046 97.9277 34.7438 97.8773C34.583 97.8284 34.4238 97.778 34.2615 97.7276C34.1007 97.6772 33.9431 97.6252 33.7823 97.5716C33.6215 97.5196 33.4639 97.466 33.3047 97.4124C33.1455 97.3573 32.988 97.3021 32.8288 97.2469C32.512 97.1366 32.1967 97.0216 31.8831 96.9034C31.7255 96.8451 31.571 96.7852 31.4134 96.7253C31.1029 96.6056 30.7939 96.4826 30.4866 96.3566C30.4834 96.355 30.4819 96.355 30.4803 96.3534C30.3274 96.2904 30.1745 96.2258 30.0216 96.1612C29.8782 96.0997 29.7332 96.0382 29.5898 95.9752C29.4117 95.898 29.2335 95.8192 29.057 95.7404L28.652 95.5545C28.507 95.4883 28.362 95.4205 28.2154 95.3512C28.0121 95.2566 27.8103 95.1589 27.6085 95.0596C27.3564 94.9383 27.1073 94.8122 26.8583 94.6861C26.7101 94.6105 26.562 94.5364 26.4154 94.4576C26.2688 94.3804 26.1222 94.3016 25.9756 94.2244C25.6841 94.0668 25.3941 93.9092 25.1056 93.7453C24.8077 93.5783 24.513 93.4081 24.2198 93.2348C24.0874 93.156 23.9566 93.0772 23.8258 93C23.7186 92.9354 23.6114 92.8692 23.5074 92.8046C23.3514 92.71 23.1985 92.6139 23.044 92.5177C22.7367 92.3239 22.4325 92.1269 22.1298 91.9268C21.9801 91.8259 21.8288 91.7267 21.6791 91.6242C21.5294 91.5218 21.3796 91.4209 21.2315 91.3169C20.6357 90.9025 20.0509 90.4754 19.474 90.0357C19.3353 89.9302 19.1982 89.8246 19.0611 89.719C19.0548 89.7127 19.0453 89.708 19.039 89.7017C19.0059 89.6749 18.9728 89.6497 18.9397 89.6229C18.8751 89.5724 18.8105 89.522 18.7474 89.4716C18.6686 89.4101 18.5898 89.3487 18.5142 89.284C18.4653 89.2478 18.418 89.2068 18.3707 89.169C18.3313 89.1375 18.2904 89.1044 18.251 89.0697C18.2431 89.065 18.2352 89.0587 18.2273 89.0508C18.2241 89.0477 18.221 89.0461 18.2178 89.0429C18.2115 89.0382 18.2052 89.0335 18.1989 89.0272C18.0413 88.8995 17.8853 88.7703 17.7293 88.6395C17.5811 88.515 17.4298 88.389 17.2832 88.2597C17.2674 88.2487 17.2548 88.2345 17.2391 88.2235C17.1792 88.1715 17.1209 88.1211 17.0625 88.069C16.8907 87.9209 16.7205 87.7696 16.5503 87.6184L16.5802 87.579C17.0814 86.9108 17.6142 86.219 18.1816 85.5114C19.1919 84.2491 20.311 82.9301 21.5435 81.5828C22.2008 80.8594 22.8927 80.1282 23.6193 79.3923C24.8503 78.141 26.1758 76.8788 27.6022 75.6212C28.2768 75.0271 28.9735 74.4346 29.6922 73.8452C30.7498 72.9801 31.8531 72.1212 33.0069 71.2765C33.7114 70.7628 34.4349 70.2507 35.1772 69.748C36.041 69.1617 36.9299 68.5865 37.8441 68.0208C41.0893 66.021 44.6562 64.1646 48.5713 62.5635C50.8867 61.6149 53.1847 60.8143 55.4591 60.1383C56.3402 59.8782 57.2181 59.6356 58.0913 59.4134C58.2757 59.3645 58.457 59.3204 58.6398 59.2747C58.7186 59.2542 58.7974 59.2353 58.8747 59.2164C59.0606 59.1691 59.245 59.1266 59.431 59.0824C60.5516 58.8193 61.6676 58.5845 62.774 58.3796C63.1539 58.3087 63.5337 58.2409 63.912 58.1779C65.3211 57.9383 66.716 57.7461 68.0936 57.5917C79.1156 56.3704 89.1084 57.7823 96.9734 59.8105C96.9781 59.8121 96.9812 59.8121 96.9859 59.8136L96.9891 59.8215Z" fill="#48C15C"/>
<path d="M22.7665 27.6723C30.4093 27.6723 36.6051 21.4777 36.6051 13.8362C36.6051 6.19467 30.4093 0 22.7665 0C15.1236 0 8.92786 6.19467 8.92786 13.8362C8.92786 21.4777 15.1236 27.6723 22.7665 27.6723Z" fill="#FFE669"/>
<path d="M29.7 43.9013C29.4447 43.2883 28.7796 42.8502 27.9978 42.8502C27.6038 42.8502 27.2412 42.9605 26.9418 43.1496C26.4043 42.401 25.4634 41.9046 24.3932 41.9046C23.3229 41.9046 22.352 42.4152 21.8224 43.1827C21.564 42.5476 20.8767 42.0985 20.0697 42.0985C19.6205 42.0985 19.2044 42.245 18.8829 42.4751C18.5834 41.4744 17.5605 40.7338 16.3343 40.7338C14.9898 40.7338 13.877 41.6241 13.7242 42.7856C13.6989 42.7856 13.6769 42.7777 13.6469 42.7777C12.9061 42.7777 12.2931 43.2599 12.1827 43.8918H11.0542C10.5435 43.8918 10.1227 44.2637 10.1227 44.7176C10.1227 45.1714 10.5388 45.5433 11.0542 45.5433H17.0893C17.6378 45.868 18.3848 46.0697 19.2029 46.0697C19.7876 46.0697 20.3346 45.9672 20.7979 45.7923C21.3606 46.2808 22.2874 46.5992 23.3324 46.5992C24.5476 46.5992 25.6005 46.1721 26.1111 45.5433H29.5613C30.072 45.5433 30.4928 45.1714 30.4928 44.7176C30.4928 44.3047 30.1461 43.9612 29.6969 43.9029L29.7 43.9013Z" fill="white"/>
<path d="M48.2546 35.3379C48.0765 35.3379 47.9142 35.36 47.7581 35.4025C47.7739 35.3048 47.7739 35.2024 47.7739 35.0999C47.7739 32.859 45.9597 31.05 43.7232 31.05C42.7459 31.05 41.8444 31.4061 41.1414 31.9734C40.4936 29.5277 38.2634 27.7075 35.6013 27.7075C32.6791 27.7075 30.2597 29.8948 29.9192 32.7298C29.8593 32.7298 29.8105 32.7141 29.7569 32.7141C27.9743 32.7141 26.5384 34.156 26.5384 35.932C26.5384 37.708 27.9207 39.0806 29.6387 39.1499V39.1657H48.2546C49.3138 39.1657 50.1617 38.3068 50.1617 37.2589C50.1665 36.1952 49.309 35.3363 48.2546 35.3363V35.3379Z" fill="white"/>
<path d="M80.5308 26.4396C80.4472 26.4396 80.3716 26.4474 80.2991 26.4616C80.307 26.4285 80.307 26.3939 80.307 26.3592C80.307 25.6012 79.4622 24.9898 78.4203 24.9898C77.9648 24.9898 77.5455 25.1095 77.2177 25.3018C76.9167 24.4744 75.878 23.8599 74.6376 23.8599C73.2773 23.8599 72.1504 24.5989 71.9912 25.5571C71.9628 25.5571 71.9408 25.5524 71.9155 25.5524C71.0849 25.5524 70.4166 26.0393 70.4166 26.6397C70.4166 27.2401 71.0597 27.7034 71.8604 27.7271V27.7318H80.5292C81.0225 27.7318 81.4165 27.4418 81.4165 27.0872C81.4197 26.728 81.0194 26.438 80.5292 26.438L80.5308 26.4396Z" fill="white"/>
<path d="M55.7349 71.4265C55.2794 72.2712 54.1651 72.6557 53.2052 72.2696C52.2705 71.8804 51.8655 70.8923 52.3178 70.024C52.7733 69.1793 53.853 68.7066 55.7113 67.5404C56.0108 69.5465 56.1873 70.5582 55.7349 71.4265Z" fill="#E2A347"/>
<path d="M52.9545 72.3409C53.5644 73.0816 53.3627 74.1531 52.5195 74.6937C51.6778 75.2563 50.4846 75.0987 49.8983 74.3564C49.2883 73.6158 49.3608 72.5332 49.1654 70.5397C51.2585 71.2488 52.3414 71.5766 52.9545 72.3409Z" fill="#F5C67B"/>
<path d="M52.4439 67.4051C53.0538 68.1458 52.8505 69.1953 52.0088 69.7579C51.1672 70.3205 49.9992 70.1614 49.3877 69.4207C48.7777 68.68 48.8518 67.621 48.6564 65.6276C50.7747 66.3351 51.8575 66.6629 52.4439 67.4051Z" fill="#F5C67B"/>
<path d="M56.2015 76.1836C55.746 77.0283 54.6317 77.4128 53.6718 77.0267C52.7372 76.6374 52.3321 75.6494 52.7844 74.7811C53.24 73.9364 54.3196 73.4636 56.1779 72.2975C56.4789 74.3256 56.6555 75.3389 56.2015 76.1836Z" fill="#E2A347"/>
<path d="M53.4226 77.0981C54.0326 77.8388 53.8308 78.9104 52.9876 79.4509C52.1459 80.0135 50.9528 79.8559 50.3664 79.1136C49.7565 78.373 49.829 77.2904 49.6335 75.2969C51.7298 76.0297 52.8126 76.3574 53.4226 77.0981Z" fill="#F5C67B"/>
<path d="M56.6633 80.8735C56.2078 81.7182 55.0934 82.1027 54.1336 81.7166C53.1989 81.3274 52.7938 80.3393 53.2462 79.471C53.7017 78.6263 54.7814 78.1536 56.6396 76.9874C56.9391 78.9935 57.1157 80.0052 56.6633 80.8735Z" fill="#E2A347"/>
<path d="M53.8828 81.788C54.4928 82.5287 54.291 83.6003 53.4478 84.1408C52.6061 84.7034 51.413 84.5458 50.8267 83.8036C50.2167 83.0629 50.2892 81.9803 50.0938 79.9868C52.1869 80.696 53.2697 81.0237 53.8828 81.788Z" fill="#F5C67B"/>
<path d="M54.3509 86.5439C54.9609 87.2846 54.7591 88.3562 53.9159 88.8967C53.0742 89.4593 51.8811 89.3017 51.2948 88.5594C50.6848 87.8188 50.7573 86.7362 50.5619 84.7427C52.6582 85.4755 53.741 85.8032 54.3509 86.5439Z" fill="#F5C67B"/>
<path d="M57.1299 85.6318C56.6744 86.4765 55.56 86.861 54.6002 86.4749C53.6655 86.0857 53.2604 85.0976 53.7128 84.2293C54.1683 83.3846 55.2479 82.9119 57.1062 81.7457C57.4073 83.7739 57.5838 84.7872 57.1299 85.6318Z" fill="#E2A347"/>
<path d="M55.9841 87.5274C55.2527 88.1704 54.8934 88.6873 54.6207 88.7818C54.7011 88.8197 54.7846 88.8795 54.865 88.9174C55.7997 89.3066 56.9424 88.9426 57.3947 88.0743C57.7178 87.4487 57.7241 86.7379 57.5886 85.608C57.5649 85.6332 56.8809 86.7521 55.9841 87.5274Z" fill="#E2A347"/>
<path d="M67.4173 53.4116C66.6576 54.718 64.9979 55.1844 63.655 54.4249C62.3484 53.6653 61.8818 52.0059 62.6415 50.6632C63.4012 49.3568 65.0215 48.7438 67.8507 47.1144C68.043 50.4064 68.177 52.0689 67.4173 53.4116Z" fill="#E2A347"/>
<path d="M63.2499 54.5033C64.0443 55.7877 63.6235 57.4959 62.3373 58.2539C61.0528 59.0482 59.3442 58.6274 58.5861 57.3415C57.7917 56.0571 58.0265 54.3142 57.9824 51.0585C60.9266 52.4988 62.454 53.1812 63.2483 54.5033H63.2499Z" fill="#F5C67B"/>
<path d="M63.1413 46.4361C63.9356 47.7204 63.5148 49.3924 62.2287 50.1867C60.9441 50.9809 59.2718 50.5601 58.4775 49.2742C57.6831 47.9899 57.9195 46.2832 57.8754 43.0275C60.8196 44.4678 62.3469 45.1502 63.1413 46.4361Z" fill="#F5C67B"/>
<path d="M67.5228 61.1813C66.7631 62.4877 65.1034 62.9542 63.7605 62.1946C62.4539 61.4351 61.9874 59.7757 62.7471 58.433C63.5068 57.1266 65.1271 56.5136 67.9562 54.8842C68.1485 58.2124 68.2825 59.8765 67.5228 61.1813Z" fill="#E2A347"/>
<path d="M63.354 62.2743C64.1483 63.5587 63.7275 65.2669 62.4414 66.0249C61.1568 66.8192 59.4482 66.3984 58.6901 65.1125C57.8957 63.8281 58.1306 62.0852 58.0865 58.8295C61.0307 60.3076 62.558 60.99 63.3524 62.2743H63.354Z" fill="#F5C67B"/>
<path d="M67.6268 68.8425C66.8671 70.1489 65.2075 70.6153 63.8646 69.8558C62.558 69.0962 62.0914 67.4368 62.8511 66.0942C63.6108 64.7878 65.2311 64.1747 68.0603 62.5453C68.2526 65.8373 68.3865 67.4998 67.6268 68.8425Z" fill="#E2A347"/>
<path d="M63.458 69.9342C64.2524 71.2186 63.8316 72.9268 62.5454 73.6848C61.2609 74.4791 59.5523 74.0583 58.7942 72.7724C57.9998 71.4881 58.2347 69.7451 58.1905 66.4894C61.1348 67.9297 62.6621 68.6121 63.4564 69.9342H63.458Z" fill="#F5C67B"/>
<path d="M63.5636 77.7052C64.358 78.9896 63.9372 80.6978 62.651 81.4558C61.3665 82.2501 59.6579 81.8293 58.8998 80.5434C58.1054 79.2591 58.3403 77.5161 58.2961 74.2604C61.2404 75.7385 62.7677 76.4209 63.5621 77.7052H63.5636Z" fill="#F5C67B"/>
<path d="M67.731 76.6123C66.9713 77.9187 65.3116 78.3851 63.9687 77.6255C62.6621 76.866 62.1956 75.2066 62.9553 73.8639C63.715 72.5575 65.3353 71.9445 68.1644 70.3151C68.3567 73.6433 68.4907 75.3074 67.731 76.6123Z" fill="#E2A347"/>
<path d="M65.8082 79.5246C64.6733 80.4654 64.0917 81.2502 63.6866 81.3668C63.7986 81.4393 63.9105 81.5496 64.024 81.6221C65.3306 82.3817 67.0265 81.9514 67.7862 80.6088C68.3284 79.6396 68.4246 78.4908 68.3615 76.6407C68.3615 76.677 67.2377 78.3947 65.8098 79.5246H65.8082Z" fill="#E2A347"/>
<path d="M72.658 66.0414C73.1435 67.1177 74.3965 67.6141 75.503 67.1319C76.5795 66.6465 77.0759 65.3937 76.5936 64.2874C76.1082 63.2111 74.8961 62.6028 72.8282 61.1073C72.4137 63.6523 72.1725 64.9635 72.658 66.0414Z" fill="#F5C67B"/>
<path d="M75.812 67.2263C75.0902 68.1623 75.2809 69.5239 76.2202 70.2173C77.1565 70.939 78.5183 70.7483 79.2118 69.8091C79.9336 68.873 79.8895 67.4989 80.1859 64.9696C77.7507 65.8505 76.5055 66.287 75.812 67.2263Z" fill="#E2A347"/>
<path d="M76.5417 60.9894C75.8198 61.9255 76.0137 63.2587 76.9499 63.9804C77.8862 64.7022 79.2196 64.5083 79.9414 63.5723C80.6633 62.6362 80.616 61.292 80.9123 58.7611C78.5103 59.6168 77.2636 60.0533 76.5433 60.9878L76.5417 60.9894Z" fill="#E2A347"/>
<path d="M71.9471 72.1058C72.4326 73.1821 73.6856 73.6785 74.7921 73.1963C75.8686 72.7109 76.365 71.4581 75.8827 70.3519C75.3973 69.2755 74.1852 68.6673 72.1173 67.1718C71.7028 69.7168 71.4648 70.9995 71.9471 72.1058Z" fill="#F5C67B"/>
<path d="M75.101 73.2908C74.3791 74.2269 74.5698 75.5885 75.5092 76.2818C76.4486 76.9736 77.8072 76.8129 78.5007 75.8737C79.2226 74.9376 79.1785 73.5635 79.4748 71.0342C77.0396 71.9151 75.7976 72.3232 75.101 73.2908Z" fill="#E2A347"/>
<path d="M71.2535 78.0274C71.739 79.1038 72.992 79.6002 74.0985 79.1179C75.175 78.6326 75.6715 77.3798 75.1892 76.2735C74.7037 75.1972 73.4917 74.5889 71.4237 73.0934C71.0092 75.6384 70.7681 76.9495 71.2535 78.0274Z" fill="#F5C67B"/>
<path d="M74.4091 79.2123C73.6873 80.1484 73.878 81.51 74.8174 82.2033C75.7536 82.9251 77.1154 82.7344 77.8089 81.7952C78.5308 80.8591 78.4866 79.485 78.783 76.9557C76.3478 77.8366 75.1026 78.2731 74.4091 79.2123Z" fill="#E2A347"/>
<path d="M73.6984 85.2768C72.9765 86.2129 73.1672 87.5744 74.1066 88.2678C75.0429 88.9895 76.4046 88.7989 77.0981 87.8597C77.82 86.9236 77.7759 85.5494 78.0722 83.0201C75.637 83.9011 74.395 84.3092 73.6984 85.2768Z" fill="#E2A347"/>
<path d="M70.5445 84.0919C71.03 85.1682 72.283 85.6646 73.3895 85.1824C74.466 84.697 74.9625 83.4442 74.4802 82.3379C73.9947 81.2616 72.7826 80.6533 70.7147 79.1578C70.3002 81.7029 70.0622 82.9856 70.5445 84.0919Z" fill="#F5C67B"/>
<path d="M71.8052 86.5129C72.6122 87.3355 73.0015 87.9926 73.3073 88.1171C73.2143 88.1644 73.1181 88.24 73.0251 88.2873C71.9486 88.7727 70.6625 88.3015 70.1802 87.1968C69.8366 86.3994 69.8539 85.498 70.0509 84.064C70.0509 84.064 70.787 85.4901 71.8036 86.5129H71.8052Z" fill="#F5C67B"/>
<path d="M56.3008 99.4623L55.9194 99.519C55.7507 99.5427 55.5836 99.5663 55.415 99.5868L55.4055 99.5096L54.1746 89.5312L55.0493 89.3263L56.2913 99.3851L56.2992 99.4623H56.3008Z" fill="#E2A347"/>
<path d="M64.3343 97.5438C64.2209 97.5832 64.1058 97.6226 63.9907 97.6572C63.8631 97.7014 63.737 97.7408 63.6093 97.7802C63.4217 97.8385 63.2358 97.8952 63.0482 97.9519L63.0466 97.8731L62.7787 86.0588L62.703 82.7101L64.0002 82.7211L64.1074 87.5039L64.3312 97.465V97.5422L64.3343 97.5438Z" fill="#F5C67B"/>
<path d="M73.9112 88.7753L73.5912 93.2792L73.5849 93.3627C73.2318 93.5691 72.8772 93.7724 72.5178 93.9678L72.5241 93.8875L72.8898 88.7501L73.9112 88.7769V88.7753Z" fill="#E2A347"/>
</svg>
