<svg width="158" height="100" viewBox="0 0 158 100" fill="none" xmlns="http://www.w3.org/2000/svg">
<path d="M14.4041 90.353C14.4837 91.8623 13.3322 93.2611 11.8205 93.3406C10.3087 93.4224 9.01359 92.1518 8.93402 90.6425C8.85446 89.131 10.017 87.951 11.5309 87.8693C13.0427 87.7919 14.3246 88.8393 14.4063 90.3508L14.4041 90.353Z" fill="#6AC92F"/>
<path d="M20.6655 86.981C21.859 87.4362 22.5486 88.8107 22.0888 90.0062C21.6313 91.2039 20.2036 91.7695 19.0101 91.3121C17.8122 90.8547 17.3017 89.5487 17.757 88.3511C18.2167 87.1534 19.4676 86.5236 20.6655 86.981Z" fill="#6AC92F"/>
<path d="M18.8886 93.3357C19.9273 93.7334 20.5263 94.9267 20.1285 95.9675C19.7306 97.0105 18.4885 97.5011 17.4498 97.1055C16.4088 96.7078 15.9623 95.572 16.3602 94.5289C16.7602 93.4881 17.8476 92.9379 18.8908 93.3357H18.8886Z" fill="#6AC92F"/>
<path d="M81.1859 71.8612C36.9675 73.3859 29.6431 45.1784 40.6186 23.5514C54.2928 -3.40102 110.079 -2.00887 121.302 23.041C131.789 46.4335 125.849 70.321 81.1837 71.8612H81.1859Z" fill="#6AC92F"/>
<path d="M78.7392 72.8268C56.9118 72.8268 36.311 64.3745 34.2909 44.6479C32.2709 24.9236 41.1601 13.2472 57.3229 6.00142C73.4835 -1.24439 76.3147 -0.842207 79.946 1.57306C83.5861 3.98833 81.1616 8.01231 85.6062 10.0276C90.0486 12.0407 97.7244 11.6363 100.151 16.0647C102.576 20.493 98.5355 21.2996 101.767 23.7127C105 26.1279 109.845 27.7388 110.656 32.9716C111.467 38.2065 108.631 40.2196 110.656 43.8414C112.678 47.4632 113.487 51.8915 111.063 55.5155C108.636 59.1395 106.216 61.1526 104.194 64.7744C102.169 68.3984 93.2842 72.8246 78.7437 72.8246L78.7392 72.8268Z" fill="#9ADA74"/>
<path d="M81.8269 17.826C80.7285 19.3464 78.147 22.4887 73.6383 24.5747C69.2092 26.6231 65.2177 26.59 63.3479 26.4552C64.0529 26.8507 68.4887 29.2439 73.6383 27.4518C80.24 25.1558 81.7606 18.1619 81.8269 17.826Z" fill="#D5EFC4"/>
<path d="M55.2676 23.1231C54.5205 22.1243 53.0464 19.8947 52.6839 16.8828C52.3259 13.9261 53.2254 11.7495 53.7227 10.7617C53.3116 11.0446 50.7832 12.8477 50.8141 16.1314C50.8561 20.341 55.0642 22.9972 55.2676 23.1209V23.1231Z" fill="#D5EFC4"/>
<path d="M53.3094 30.9164C51.9568 31.3075 48.9886 31.9727 45.459 31.1263C41.9935 30.2955 39.7855 28.4393 38.8086 27.5001C39.0098 28.057 40.316 31.5086 44.06 32.8234C48.8582 34.5073 53.1105 31.0843 53.3116 30.9164H53.3094Z" fill="#D5EFC4"/>
<path d="M52.8099 42.5441C51.9457 43.6556 49.9389 45.9405 46.5861 47.3348C43.2952 48.7027 40.4176 48.5016 39.0738 48.316C39.5645 48.6496 42.6521 50.6694 46.4513 49.5291C51.3203 48.0685 52.7436 42.7982 52.8077 42.5441H52.8099Z" fill="#D5EFC4"/>
<path d="M91.2443 35.5089C89.3304 36.5431 84.9653 38.5518 78.3791 38.733C71.9099 38.9097 66.652 37.2325 64.2253 36.331C65.0342 37.0071 70.1551 41.1748 77.4994 41.5438C86.9102 42.0189 91.0521 35.8072 91.2421 35.5067L91.2443 35.5089Z" fill="#D5EFC4"/>
<path d="M86.0395 53.4078C84.1166 53.7658 79.8997 54.2807 74.9092 52.6012C70.007 50.9528 66.9018 48.0425 65.5293 46.5907C65.8056 47.3995 67.6113 52.4156 72.9001 54.7801C79.6787 57.8097 85.7521 53.6133 86.0395 53.4078Z" fill="#D5EFC4"/>
<path d="M25.9677 42.5823C32.828 45.6296 38.4705 49.9497 52.1977 53.0036C65.9272 56.0597 73.161 58.0308 76.39 67.6675C79.6168 77.3043 68.9639 87.4581 53.7007 84.2717C27.559 78.8224 18.0686 65.639 9.99275 48.9906C1.91687 32.3423 25.9677 42.5823 25.9677 42.5823Z" fill="#7235C9"/>
<path d="M0.259178 32.9409L4.41427 29.5887L9.55286 35.1794C13.1421 32.8371 18.1702 32.4636 20.5152 35.3098C24.9421 40.6839 30.0962 40.9734 30.0962 40.9734C29.2851 46.447 23.5983 45.8437 23.5983 45.8437L24.1487 52.4111L15.9336 51.4764C15.8871 57.1091 9.79597 57.4317 9.79597 57.4317C9.79597 57.4317 10.4789 54.3491 6.29068 45.1941C4.71264 41.7446 5.71383 38.7305 7.81126 36.6003C4.67064 33.7497 0.26139 32.9432 0.26139 32.9432L0.259178 32.9409Z" fill="#A579DF"/>
<path d="M10.269 69.4972C10.101 69.7712 9.93524 70.043 9.76727 70.317C11.4868 75.4967 14.3467 75.1807 16.5259 75.4923C16.9834 74.8514 17.3459 74.1443 17.6022 73.3952C13.3565 74.0537 11.4779 72.0274 10.269 69.4972Z" fill="#299112"/>
<path d="M59.6525 78.8488C59.6525 78.8488 38.024 86.0327 17.7481 72.5001C17.7481 72.5001 12.0393 75.2225 12.3686 75.6269C13.4206 76.913 15.9004 79.3371 16.0595 79.4852C21.5937 84.6892 29.4176 87.8889 36.91 88.828C42.9437 89.586 49.446 89.1286 54.6642 85.7255C55.6985 85.0493 56.6489 84.2605 57.5241 83.3898C57.8645 83.0517 60.3332 80.7558 60.1962 80.3713L59.6547 78.8488H59.6525Z" fill="#44A51B"/>
<path d="M21.8679 78.0577C21.6712 79.4455 20.3827 80.4089 18.9969 80.2123C17.6089 80.0134 16.6453 78.7273 16.842 77.3396C17.0409 75.9518 18.3272 74.9884 19.7152 75.1873C21.1032 75.3839 22.0668 76.6722 21.8679 78.0577Z" fill="#9ADA74"/>
<path d="M27.8087 81.0976C27.5546 82.8809 25.9014 84.1206 24.1178 83.8664C22.3342 83.6123 21.0943 81.9594 21.3485 80.1739C21.6049 78.3907 23.2558 77.151 25.0416 77.4051C26.8252 77.6592 28.0651 79.3121 27.811 81.0954L27.8087 81.0976Z" fill="#B8E59D"/>
<path d="M43.7196 85.3256C43.4057 87.5154 41.3768 89.038 39.1865 88.7242C36.9963 88.4126 35.4735 86.3818 35.7851 84.192C36.099 81.9999 38.1279 80.4796 40.3181 80.7933C42.5084 81.1071 44.0312 83.1357 43.7174 85.3256H43.7196Z" fill="#B8E59D"/>
<path d="M50.94 85.0136C50.6726 86.8787 48.9465 88.1736 47.0811 87.9084C45.2157 87.6433 43.9206 85.9152 44.1858 84.0502C44.4532 82.1852 46.1794 80.8902 48.0447 81.1554C49.9101 81.4228 51.2053 83.1508 50.94 85.0136Z" fill="#9ADA74"/>
<path d="M55.9571 83.2572C55.7648 84.5963 54.5249 85.5266 53.1855 85.3344C51.8462 85.1421 50.9157 83.9025 51.108 82.5634C51.2981 81.2265 52.5402 80.2961 53.8773 80.4862C55.2167 80.6762 56.1449 81.9181 55.9549 83.255L55.9571 83.2572Z" fill="#B8E59D"/>
<path d="M58.943 81.357C58.8237 82.1834 58.0568 82.758 57.2302 82.6409C56.4036 82.5215 55.8289 81.7547 55.946 80.9283C56.0632 80.1018 56.8301 79.5273 57.6567 79.6444C58.4833 79.7615 59.0579 80.5283 58.9408 81.3548L58.943 81.357Z" fill="#9ADA74"/>
<path d="M35.2349 83.8782C34.9387 85.9421 33.0269 87.3762 30.9627 87.0823C28.8984 86.7884 27.464 84.8748 27.7579 82.8109C28.0541 80.7469 29.9659 79.315 32.0301 79.6089C34.0944 79.9028 35.5288 81.8165 35.2349 83.8782Z" fill="#9ADA74"/>
<path d="M59.9089 79.5682C59.6061 79.8643 59.3652 80.0941 59.2724 80.1869C58.353 81.1084 57.3518 81.9437 56.2644 82.6574C50.7656 86.2505 43.8898 86.6946 37.5024 85.8461C29.568 84.7942 21.2689 81.3315 15.3811 75.7453C15.3059 75.6746 14.7379 75.1177 14.0329 74.3995C13.0251 74.9608 12.2383 75.4668 12.3664 75.626C13.4185 76.912 15.8982 79.3361 16.0574 79.4842C21.5916 84.6882 29.4155 87.8879 36.9079 88.8271C42.9416 89.585 49.4439 89.1276 54.662 85.7246C55.6964 85.0484 56.6467 84.2595 57.522 83.3888C57.8623 83.0507 60.3311 80.7548 60.194 80.3703L59.9089 79.5704V79.5682Z" fill="#6AC92F"/>
<path d="M22.7474 72.2392C22.6524 72.3364 22.3717 72.3961 22.2567 72.4403C22.0844 72.5066 21.9142 72.5706 21.7396 72.6237C21.397 72.7342 21.0544 72.8137 20.7163 72.88C20.0775 73.0015 19.4388 73.0656 18.8465 72.9728C18.4354 72.9087 18.1105 72.7518 17.8099 72.5463C17.6397 72.4292 17.4762 72.2966 17.3082 72.1552C17.0032 71.8989 16.6518 71.7088 16.3291 71.4746C15.4804 70.8581 13.9311 71.5409 12.8746 73.0015C11.8182 74.46 11.6502 76.1438 12.5011 76.7603C12.983 77.1095 13.5333 77.357 14.0041 77.7216C14.466 78.0751 14.7069 78.5348 14.9279 79.1115C15.1577 79.7082 15.2616 80.4131 15.2881 81.1114C15.2948 81.3478 15.297 81.5887 15.2904 81.8317C15.2859 82.0129 15.3279 82.4195 15.2395 82.5985C15.2395 82.5985 17.2485 80.0197 16.475 77.399C17.4364 77.3658 19.6466 78.4464 20.3229 79.7877C20.3229 79.7877 20.2787 76.3007 17.7458 75.2002C20.6875 75.7107 22.743 72.2414 22.7452 72.2392H22.7474Z" fill="#299112"/>
<path d="M145.689 54.8967C144.622 48.1591 140.484 46.8244 137.68 45.3549C134.877 43.8877 132.406 40.2835 132.141 39.6162C131.874 38.9488 131.874 37.9478 131.874 37.9478L131.544 37.5545V37.1125C131.633 37.0462 131.739 37.0153 131.739 37.0153C131.739 37.0153 131.538 36.549 131.538 35.8817C131.538 35.2143 130.738 34.3459 129.469 33.3471C128.2 32.3461 127.533 32.8808 127.199 32.914C126.865 32.9471 125.332 34.1492 124.931 34.6155C124.531 35.0818 124.465 36.4165 124.465 37.0175C124.465 37.044 124.489 37.0838 124.494 37.1125H123.594C123.594 37.0816 123.563 37.0485 123.563 37.0175C123.563 36.0187 123.683 34.6884 124.249 34.0299C124.348 33.915 124.662 33.6123 125.06 33.2764C124.89 33.3206 124.73 33.3648 124.6 33.4134C123.798 33.7139 121.596 36.0165 121.596 36.717C121.596 36.7921 121.618 36.9424 121.649 37.1125H120.637V38.1622L120.195 39.4858C120.195 39.4858 120.328 41.9563 119.329 43.6225C118.328 45.2909 117.66 46.5593 115.991 47.6266C114.323 48.6939 105.913 54.1653 102.443 56.3684C98.9733 58.5693 87.2949 63.5081 75.0153 63.3092C62.7357 63.1082 62.6031 62.3745 58.8657 63.7755C55.1284 65.1765 55.7958 65.1765 55.7958 65.1765L55.7494 67.3774C55.7494 67.3774 55.7693 67.3774 55.7494 67.9785C55.7296 68.5795 55.5019 68.6458 55.7494 69.1121C55.997 69.5805 56.1296 69.7131 56.6622 70.1131C57.1971 70.5131 57.9972 73.2487 61.067 74.7182C63.5137 75.8872 69.3087 77.4384 73.0814 78.055C74.0472 78.1588 74.465 78.3467 74.4473 78.3555C71.0171 80.1101 69.2424 81.458 68.3407 82.0591C67.4389 82.6601 66.2388 82.7596 66.6388 83.2612C67.0389 83.7606 67.7395 83.9617 67.7395 84.2622C67.7395 84.5627 67.8412 84.5627 67.7395 85.1638L67.64 85.7648C67.64 85.7648 67.461 87.1437 67.9627 87.4442C68.4644 87.7448 71.8835 90.2772 74.8473 90.9688C84.499 93.2206 91.766 91.0705 94.469 90.3678C94.5176 90.3545 94.5618 90.3435 94.6083 90.3324C94.6083 90.3103 94.6038 90.2904 94.6038 90.2683C94.6038 90.2595 94.6038 90.244 94.6038 90.233L95.5012 90.0341C95.5012 90.1136 95.5034 90.2087 95.5034 90.2661C95.5034 90.7346 96.036 91.2008 96.3034 91.5345C96.5709 91.8682 100.041 97.9406 112.453 97.2733C124.865 96.6059 136.88 88.6662 142.084 79.056C147.289 69.448 146.757 61.6409 145.687 54.9011L145.689 54.8967Z" fill="#FEC82B"/>
<path d="M97.4814 89.2938L95.8857 88.0673C96.204 87.7535 96.6946 87.3934 96.9709 87.3934C97.3046 87.3934 98.7059 86.8586 98.7059 86.8586C98.7059 86.8586 111.253 85.6565 120.33 79.7851C129.407 73.9138 130.673 65.1057 131.009 59.3007C131.343 53.4956 131.476 50.5589 131.542 49.2927C131.608 48.0243 131.942 45.8233 130.808 44.2875C129.674 42.7518 127.871 41.2182 127.871 41.2182C127.871 41.2182 127.217 40.6525 126.642 40.0979C126.642 40.0979 128.817 40.0603 130.519 41.6822C132.221 43.3042 134.223 45.2134 135.37 47.9801C136.515 50.7467 143.503 64.8626 132.603 76.9876C117.941 93.2978 97.4836 89.296 97.4836 89.296L97.4814 89.2938Z" fill="#FFE136"/>
<path d="M66.6388 83.2564C66.2387 82.757 67.4389 82.6553 68.3406 82.0543C69.2423 81.4532 70.743 80.2533 74.4472 78.3507C78.1515 76.4481 81.6545 77.7497 94.6679 74.3489C107.681 70.9458 113.788 61.6361 115.691 58.633C117.594 55.63 119.897 51.9264 121.196 50.2249C122.498 48.5234 122.998 42.6189 122.998 42.6189C122.998 42.6189 122.595 41.1185 122.22 39.618C122.224 39.618 125.393 40.8467 125.537 42.2057C125.681 43.5647 125.25 48.8615 125.179 50.0061C125.108 51.1508 127.858 66.997 107.356 76.5564C88.8574 85.1833 78.9913 82.3681 76.7723 82.6531C74.5533 82.9404 67.777 84.6242 67.777 84.6242H67.7748C67.7637 84.4983 67.7372 84.4187 67.7372 84.2574C67.7372 83.9569 67.0366 83.758 66.6366 83.2564H66.6388Z" fill="#FFE136"/>
<path d="M120.529 46.0708C119.17 48.0751 116.327 53.4161 111.569 57.935C105.232 63.9522 89.7172 71.3019 74.4716 69.3705C63.0142 67.9187 65.4277 65.8725 55.7848 65.6869L55.7958 65.172C55.7958 65.172 55.1284 65.172 58.8657 63.771C62.6031 62.37 62.7357 63.1037 75.0153 63.3048C87.2949 63.5058 98.9733 58.567 102.443 56.3639C105.913 54.163 114.323 48.6894 115.991 47.6221C117.66 46.5548 118.328 45.2864 119.329 43.618C120.33 41.9496 120.195 39.4813 120.195 39.4813C120.195 39.4813 121.888 44.0644 120.529 46.0686V46.0708Z" fill="#FFE136"/>
<path d="M123.495 40.2817C125.93 39.7448 125.294 38.072 125.294 37.1439C125.294 35.9307 126.114 34.2778 126.801 33.4757C126.921 33.3343 125.373 32.0482 123.594 32.5984C123.387 32.6515 123.192 32.7067 123.035 32.7663C122.06 33.1332 119.386 35.9285 119.386 36.7793C119.386 37.1527 119.715 38.5736 120.08 40.0541C121.126 40.2663 123.031 40.4055 123.362 40.5138C123.402 40.527 123.448 40.4055 123.495 40.2817Z" fill="#66452D"/>
<path d="M125.495 40.8651L129.031 40.1447L131.88 38.4719C131.876 38.3592 131.876 38.2819 131.876 38.2819L131.469 37.7957C131.062 37.3096 131.712 37.1461 131.712 37.1461C131.712 37.1461 131.469 36.5782 131.469 35.7672C131.469 34.9562 130.497 33.9021 128.956 32.6868C127.416 31.4714 126.605 32.1211 126.198 32.1609C125.793 32.2028 123.928 33.6613 123.442 34.227C122.956 34.7949 122.876 36.4169 122.876 37.1461C122.876 37.8753 124.092 39.2542 124.66 39.9834C124.843 40.2199 125.159 40.5403 125.497 40.8673L125.495 40.8651Z" fill="#66452D"/>
<path d="M157.569 81.785C158.683 73.3857 154.547 65.3753 140.573 68.4977C140.573 68.4977 130.95 65.9056 125.798 71.2378C120.648 76.5721 123.747 90.761 129.166 96.049C134.585 101.337 136.336 99.4432 139.582 98.4642C142.829 97.4875 141.897 101.034 146.759 99.6929C152.804 98.0267 156.74 88.0297 157.569 81.785Z" fill="#DE3617"/>
<path d="M136.243 61.3735C135.861 61.0575 135.569 60.8431 135.522 60.8299C134.84 60.631 134.104 61.0045 133.887 61.6718C133.668 62.3392 134.044 63.0419 134.729 63.2429C134.771 63.2562 139.441 66.3189 139.804 70.3252C139.848 70.8047 141.647 70.5838 141.607 70.144C141.351 67.3045 139.607 64.8163 138.046 63.117C140.047 63.2452 142.873 62.3988 142.873 62.3988L142.708 61.6917C142.708 61.6917 139.441 62.4209 136.243 61.3757V61.3735Z" fill="#66452D"/>
<path d="M155.816 59.666C153.265 61.3985 150.697 66.134 146.639 65.9572C144.765 65.8755 142.54 64.6513 142.124 62.8835C141.709 61.1134 142.856 59.3324 144.688 58.9015C146.52 58.4706 152.994 59.0517 155.816 59.666Z" fill="#299112"/>
</svg>
