<svg width="355" height="286" viewBox="0 0 355 286" fill="none" xmlns="http://www.w3.org/2000/svg">
<path d="M350.038 0H210.332C207.805 0 205.756 2.05348 205.756 4.58658V162.635C205.756 165.168 207.805 167.221 210.332 167.221H350.038C352.566 167.221 354.615 165.168 354.615 162.635V4.58658C354.615 2.05348 352.566 0 350.038 0Z" fill="#FE6D8C"/>
<path d="M350.038 0H210.332C207.805 0 205.756 2.05348 205.756 4.58658V162.635C205.756 165.168 207.805 167.221 210.332 167.221H350.038C352.566 167.221 354.615 165.168 354.615 162.635V4.58658C354.615 2.05348 352.566 0 350.038 0Z" fill="#ABB8E3"/>
<path d="M340.398 153.393C347.16 141.66 353.083 129.3 354.617 120.428V113.47C353.7 108.867 351.043 104.795 347.958 101.446L348.549 100.973C338.393 88.6049 326.266 81.5704 315.639 75.5065C305.011 69.4426 289.268 78.9422 289.268 78.9422L280.517 63.6535L280.826 60.5357C281.58 59.964 282.182 59.2138 282.576 58.3523C282.971 57.4908 283.146 56.5447 283.087 55.5986C283.027 54.6525 282.735 53.7359 282.236 52.9308C281.736 52.1256 281.046 51.457 280.226 50.9846C281.146 48.042 281.252 44.9045 280.534 41.9059C280.348 41.1837 280.113 40.4749 279.832 39.7844L266.393 34.4763L253.795 29.4947L247.744 34.8113C246.778 32.1544 245.807 29.4947 244.83 26.832L233.594 37.7917L241.308 40.3685L241.248 40.42L237.691 43.5464C237.359 44.1596 237.157 44.8352 237.1 45.5305C237.088 46.3175 237.258 47.0965 237.597 47.8066C238.325 49.3441 240.845 51.8521 244.744 54.4546L245.559 53.7417L244.941 54.4976C245.541 75.3519 255.697 82.0256 262.845 82.0256C263.119 82.0256 263.385 82.0256 263.651 82.0256L268.656 91.7657C268.656 91.7657 248.807 96.129 243.973 103.163C239.139 110.198 228.966 140.028 228.966 140.028L205.715 133.938V162.523C207.48 164.138 209.297 165.726 211.148 167.23H252.741C255.349 164.628 257.684 161.764 259.708 158.683L265.708 148.909L269.881 167.221H346.672L340.398 153.393Z" fill="url(#paint0_linear_1468_5347)"/>
<path d="M144.9 70.8086H5.19377C2.66619 70.8086 0.617188 72.8621 0.617188 75.3952V233.443C0.617188 235.976 2.66619 238.03 5.19377 238.03H144.9C147.427 238.03 149.476 235.976 149.476 233.443V75.3952C149.476 72.8621 147.427 70.8086 144.9 70.8086Z" fill="#8EC6C0"/>
<path d="M117.328 141.952C112.299 139.651 107.042 137.889 101.644 136.696C98.9955 133.767 97.8727 129.567 97.4442 125.727C102.012 125.246 106.015 122.361 105.655 116.116C105.26 109.159 101.995 99.4792 98.3612 93.5784C100.512 91.3796 101.558 88.9317 100.975 86.7072C99.7496 81.9488 91.8135 79.896 83.2431 82.112C76.044 83.9758 70.7046 88.279 69.9161 92.4189C65.4424 95.8546 63.6683 99.6595 63.6683 104.701C63.6683 111.263 67.8593 116.666 73.8328 116.829H74.0642C74.5291 117.44 75.1281 117.935 75.8148 118.276C76.5014 118.617 77.2573 118.795 78.0237 118.796C78.2123 118.796 78.3923 118.796 78.5722 118.796L74.587 136.988C67.4414 138.67 60.5606 141.329 54.1381 144.89C54.1381 144.89 34.2205 152.457 16.2313 202.901C13.1116 211.644 10.7633 226.143 11.1319 238.116H136.259C137.473 238.116 138.637 237.633 139.496 236.773C140.354 235.912 140.836 234.746 140.836 233.529V163.356C128.469 145.044 117.328 141.952 117.328 141.952Z" fill="url(#paint1_linear_1468_5347)"/>
<path d="M116.635 141.376C116.979 141.118 117.3 140.831 117.595 140.518C119.215 140.964 118.606 141.247 116.635 141.376Z" fill="#FF8856"/>
<path d="M114.263 116.142C114.649 123.013 109.755 125.839 104.638 125.839C99.5218 125.839 87.609 120.934 86.6405 115.892C81.3183 87.2822 96.068 88.4074 101.159 88.4074C106.25 88.4074 113.654 105.44 114.263 116.142Z" fill="#FF8856"/>
<path d="M109.615 86.6818C108.39 81.9234 100.454 79.8706 91.8834 82.0866C84.6842 83.9504 79.3449 88.2536 78.5564 92.3935C74.0827 95.8292 72.3086 99.6341 72.3086 104.676C72.3086 111.238 76.4995 116.641 82.4731 116.804C86.3469 116.907 88.121 110.027 88.121 103.465C88.1221 102.345 88.0246 101.227 87.8296 100.124C90.6861 100.32 93.5555 100.045 96.3228 99.3078C104.859 97.0918 110.807 91.4315 109.615 86.6818Z" fill="#231F20"/>
<path d="M152.289 244.051H50.627L51.3297 238.27L51.4154 237.583L52.2725 230.445L52.5039 228.504L53.618 219.365L53.7723 218.146L54.2437 214.238L54.3636 213.284L55.2207 206.138L55.3321 205.185L56.1291 198.657L56.2834 197.429L57.1919 189.939L57.3119 188.977L58.1689 181.84L58.2803 180.886L59.1373 173.732L59.2573 172.787L59.8915 167.582L60.0372 166.362L60.1229 165.641L60.2429 164.679L61.1 157.532L61.2114 156.579L62.0684 149.433L62.1884 148.48L62.6341 144.803C63.474 144.34 64.331 143.893 65.2052 143.464C65.5994 143.257 65.9937 143.06 66.3879 142.871C70.5705 140.822 74.9237 139.144 79.3977 137.855L80.8633 137.46C82.3631 137.056 83.8715 136.712 85.3884 136.412L86.2455 136.24C87.7253 135.971 89.208 135.756 90.6935 135.596C91.0877 135.544 91.482 135.51 91.8762 135.476C93.5903 135.312 95.3044 135.235 96.9585 135.227H97.1556C98.1155 135.227 99.0753 135.227 100.044 135.321C100.378 135.321 100.712 135.321 101.047 135.381C103.425 135.548 105.792 135.855 108.134 136.3C108.434 136.352 108.726 136.403 108.991 136.472C110.568 136.781 112.128 137.151 113.688 137.571L115.171 137.992L115.41 138.061L116.268 138.31C118.267 138.928 120.236 139.627 122.173 140.406C122.43 140.5 122.678 140.603 122.935 140.715C123.904 141.102 124.872 141.522 125.824 141.952L126.621 145.044L126.843 145.903L128.146 150.97L128.703 153.126L130.349 159.499L130.571 160.358L132.217 166.731L132.431 167.59L134.077 173.955L134.3 174.814L134.48 175.509L134.848 176.952L137.642 187.775L138.028 189.252L139.673 195.625L139.888 196.484L140.813 200.04L141.182 201.483L143.976 212.305L144.344 213.748L145.261 217.295L145.484 218.154L152.289 244.051Z" fill="white"/>
<path d="M103.318 108.051C104.018 108.051 104.586 107.482 104.586 106.78C104.586 106.078 104.018 105.509 103.318 105.509C102.617 105.509 102.049 106.078 102.049 106.78C102.049 107.482 102.617 108.051 103.318 108.051Z" fill="#231F20"/>
<path d="M107.43 103.465C107.43 103.465 114.723 109.838 109.675 111.719" stroke="#231F20" stroke-miterlimit="10" stroke-linecap="round"/>
<path d="M86.6262 118.744C89.3904 118.744 91.6313 116.498 91.6313 113.728C91.6313 110.958 89.3904 108.712 86.6262 108.712C83.862 108.712 81.6211 110.958 81.6211 113.728C81.6211 116.498 83.862 118.744 86.6262 118.744Z" fill="#FF8856"/>
<path opacity="0.5" d="M148.619 241.294L147.222 242.694L134.153 229.595L138.146 225.584L148.182 235.642C148.182 235.256 148.122 234.869 148.097 234.474L138.669 225.026L142.671 221.015L147.317 225.679C147.317 225.284 147.239 224.889 147.205 224.493L143.203 220.482L145.577 218.103L145.354 217.244L142.671 219.941L129.593 206.843L133.613 202.892L144.454 213.757L144.086 212.314L134.153 202.351L138.146 198.34L141.292 201.492L140.923 200.049L138.686 197.738L139.998 196.424L139.783 195.565L133.081 202.282L129.079 206.327L125.042 202.316L138.103 189.227L137.718 187.749L129.576 179.59L133.613 175.578L134.958 176.927L134.59 175.484L134.153 175.046L134.41 174.788L134.187 173.929L129.045 179.083L125.042 175.046L132.507 167.565L132.293 166.706L124.545 174.548L120.543 170.537L130.682 160.376L130.459 159.517L120.003 169.987L116.009 165.959L128.813 153.118L128.256 150.962L125.042 147.775L126.919 145.894L126.696 145.036L124.511 147.226L120.508 143.215L123.011 140.707C122.754 140.595 122.505 140.492 122.248 140.397L119.969 142.682L115.975 138.671L116.343 138.302L115.486 138.053L115.401 138.139L115.246 137.984L113.764 137.563L114.869 138.671L105.802 147.767L101.902 151.787L97.8998 147.775L109.17 136.472C108.87 136.404 108.578 136.352 108.313 136.3L97.3256 147.234L93.3318 143.223L101.165 135.381C100.831 135.381 100.497 135.33 100.162 135.321L92.8004 142.691L88.798 138.68L91.9948 135.476C91.6006 135.476 91.2063 135.545 90.8121 135.596L88.241 138.173L86.3383 136.266L85.4813 136.438L87.7439 138.705L78.6678 147.801L74.6655 151.812L70.6631 147.801L80.9476 137.494L79.482 137.889L70.1146 147.234L66.1122 143.223L66.4636 142.871C66.0694 143.06 65.6751 143.258 65.2809 143.464L74.117 152.319L70.1146 156.33L62.2898 148.48L62.1699 149.433L69.5832 156.863L65.5809 160.874L61.2957 156.579L61.1843 157.533L65.0495 161.406L61.0471 165.418L60.3101 164.679L60.1901 165.641L60.5072 165.959L60.1044 166.362L59.9587 167.582L61.0471 166.491L74.117 179.59L70.1146 183.601L59.3245 172.83L59.2045 173.775L69.5832 184.185L65.5809 188.187L58.3303 180.929L58.2189 181.883L65.0752 188.754L61.0729 192.765L57.3362 188.977L57.2162 189.939L60.4986 193.229L56.3077 197.429L56.1535 198.657L56.5048 198.305L69.5747 211.412L65.5723 215.423L55.365 205.185L55.2536 206.138L65.0495 215.956L61.0471 219.967L54.3794 213.285L54.2594 214.238L55.9735 215.956L53.788 218.146L53.6338 219.366L56.5134 216.488L60.5072 220.499L55.9735 225.043L52.5453 228.479L52.3139 230.42L65.0495 243.261L64.1925 244.12H65.2552L74.6483 234.672L78.6507 238.683L73.2942 244.051H74.3655L79.1906 239.215L83.193 243.226L82.336 244.085H83.4073L83.6901 243.802L83.9729 244.085H85.0442L79.1564 238.184L75.154 234.173L79.1564 230.162L92.2605 243.261L91.4034 244.12H92.4747L101.902 234.672L105.905 238.683L100.548 244.051H101.611L106.436 239.215L110.438 243.226L109.581 244.085H110.653L110.935 243.802L111.218 244.085H112.289L106.402 238.184L102.399 234.173L106.402 230.162L119.471 243.261L118.614 244.12H119.686L129.079 234.672L133.081 238.683L127.725 244.051H128.787L133.613 239.215L137.615 243.226L136.758 244.085H137.898L138.181 243.802L138.463 244.085H139.543L129.644 234.173L133.647 230.162L146.682 243.261L145.825 244.12H146.897L148.654 242.359C148.671 241.964 148.645 241.629 148.619 241.294ZM137.615 215.956L124.545 229.054L120.543 225.043L133.613 211.945L137.615 215.956ZM133.081 211.412L120.003 224.511L116.009 220.499L129.079 207.401L133.081 211.412ZM79.1906 210.88L75.1883 206.869L79.1906 202.892L92.2605 215.99L88.2581 220.001L79.1906 210.88ZM83.193 215.956L70.1146 229.054L66.1122 225.043L79.1906 211.945L83.193 215.956ZM101.902 206.327L97.8998 202.316L110.97 189.218L114.972 193.229L101.902 206.327ZM110.97 198.305L124.039 211.412L120.037 215.423L106.967 202.316L110.97 198.305ZM84.2557 197.738L88.2581 193.727L97.3256 202.892L101.328 206.903L97.3256 210.914L84.2557 197.738ZM96.7599 211.412L92.7576 215.423L79.6877 202.316L83.6901 198.305L96.7599 211.412ZM92.7576 197.24L88.7552 193.229L97.8312 184.142L101.834 180.122L105.836 184.142L92.7576 197.24ZM106.367 184.674L110.37 188.685L97.2913 201.784L93.3318 197.738L106.367 184.674ZM102.365 179.59L106.367 175.578L119.437 188.685L115.435 192.697L102.365 179.59ZM106.899 175.046L110.901 171.035L123.971 184.142L119.969 188.144L106.899 175.046ZM105.836 175.046L101.902 179.057L97.8998 175.046L110.97 161.948L114.972 165.959L105.836 175.046ZM97.2656 174.513L93.3318 170.502L106.402 157.37L110.404 161.372L97.2656 174.513ZM101.268 179.59L97.2656 183.601L84.1957 170.502L88.1981 166.491L101.268 179.59ZM96.7342 184.142L92.7319 188.144L79.662 175.046L83.6644 171.035L96.7342 184.142ZM92.2005 188.685L88.1981 192.697L75.1283 179.59L79.1306 175.578L92.2005 188.685ZM83.133 188.685L70.0546 201.784L66.1122 197.738L79.1906 184.64L83.133 188.685ZM83.6644 189.218L87.6668 193.229L74.6483 206.327L70.646 202.316L83.6644 189.218ZM101.902 207.401L105.905 211.412L92.8261 224.511L88.8238 220.499L101.902 207.401ZM106.436 211.945L110.438 215.956L97.3599 229.054L93.3318 225.043L106.436 211.945ZM106.436 210.88L102.434 206.869L106.436 202.857L119.506 215.956L115.503 219.967L106.436 210.88ZM128.582 206.869L124.579 210.88L111.467 197.738L115.469 193.727L128.582 206.869ZM137.649 188.685L124.579 201.784L120.543 197.738L133.613 184.674L137.649 188.685ZM133.115 184.142L120.037 197.24L116.043 193.229L129.113 180.122L133.115 184.142ZM124.545 175.553L128.547 179.564L124.545 183.575L111.467 170.477L115.469 166.465L124.545 175.553ZM115.469 139.195L124.545 148.282L128.547 152.293L124.545 156.304L111.467 143.198L115.469 139.195ZM110.935 143.739L124.005 156.837L120.003 160.848L106.933 147.75L110.935 143.739ZM106.402 148.282L119.471 161.406L115.469 165.418L102.399 152.319L106.402 148.282ZM105.87 156.871L92.7918 169.97L88.7895 165.959L97.8655 156.863L101.868 152.852L105.87 156.871ZM88.2581 139.229L101.328 152.328L97.3256 156.339L84.2557 143.232L88.2581 139.229ZM83.7244 143.773L96.7599 156.863L92.7576 160.874L79.6877 147.775L83.7244 143.773ZM79.1906 148.317L92.2605 161.415L88.2581 165.426L75.1883 152.328L79.1906 148.317ZM61.6214 165.959L70.6888 156.863L74.6912 152.852L78.6936 156.863L65.6237 169.961L61.6214 165.959ZM66.1551 170.502L79.1906 157.37L83.193 161.372L70.1146 174.548L66.1551 170.502ZM70.6888 175.046L83.7672 161.948L87.7696 165.959L78.6936 175.046L74.6912 179.057L70.6888 175.046ZM70.6888 184.142L74.6912 180.122L78.6936 184.142L65.6237 197.24L61.6214 193.229L70.6888 184.142ZM57.0448 197.738L61.0471 193.727L70.1146 202.892L74.117 206.903L70.1146 210.914L57.0448 197.738ZM74.6483 207.367L78.6507 211.378L65.5809 224.476L61.6214 220.499L74.6483 207.367ZM65.5809 242.659L52.5025 229.561L56.5134 225.55L69.5832 238.648L65.5809 242.659ZM70.1146 238.116L57.0448 225.009L61.0471 220.998L70.1146 230.094L74.117 234.105L70.1146 238.116ZM74.6483 233.572L70.646 229.561L83.7244 216.454L87.7267 220.465L74.6483 233.572ZM92.7918 242.659L79.722 229.561L83.7244 225.55L96.7599 238.683L92.7918 242.659ZM97.3256 238.116L84.2557 225.009L88.2581 220.998L97.3256 230.094L101.328 234.105L97.3256 238.116ZM101.868 233.572L97.8655 229.561L110.935 216.454L114.938 220.465L101.868 233.572ZM120.003 242.659L106.933 229.561L110.935 225.55L124.005 238.648L120.003 242.659ZM124.545 238.116L111.467 225.009L115.469 220.998L128.547 234.105L124.545 238.116ZM133.115 229.527L129.113 233.538L125.042 229.595L138.112 216.488L142.183 220.499L133.115 229.527ZM56.4791 242.694L52.4682 238.683L51.9368 238.15L51.3798 237.583L51.2598 237.463C51.2598 237.738 51.2598 238.004 51.2598 238.27C51.2598 238.382 51.2598 238.485 51.2598 238.588L51.354 238.683L51.2683 238.769L51.3198 239.782L51.8854 239.215L55.8878 243.226L55.0307 244.085H56.1106L56.3934 243.802L56.6762 244.085H57.7475L56.4791 242.694Z" fill="#FE6D8C"/>
<path d="M117.591 140.474C117.296 140.788 116.975 141.075 116.631 141.333C112.937 144.297 104.941 146.341 95.6765 146.341C84.9636 146.341 75.9647 143.601 73.3164 139.865C76.5317 138.639 79.8277 137.637 83.1809 136.867L87.8775 115.463L106.141 116.193C106.141 116.193 104.093 129.858 110.246 136.661C111.809 138.413 113.89 139.617 116.185 140.096C116.768 140.251 117.231 140.371 117.591 140.474Z" fill="#FF8856"/>
<path d="M118.553 139.023C118.321 139.56 117.996 140.051 117.593 140.474C117.233 140.371 116.736 140.251 116.187 140.122C113.892 139.643 111.811 138.439 110.248 136.688C113.06 137.302 115.833 138.082 118.553 139.023Z" fill="#FF8856"/>
<path d="M125.9 141.952C125.9 141.952 147.652 147.965 164.347 193.109C181.042 238.253 182.25 235.797 161.93 248.165C141.61 260.533 95.8608 287.211 85.7049 285.957C85.7049 285.957 81.1026 285.476 93.6839 279.773C93.6839 279.773 80.1341 284.987 78.5658 282.564C76.9974 280.142 92.5955 275.049 92.5955 275.049C92.5955 275.049 75.3347 281.388 73.6206 279.206C71.9066 277.024 89.9558 269.758 89.9558 269.758C89.9558 269.758 76.1575 274.851 74.2206 272.541C72.2837 270.23 96.1265 260.903 96.1265 260.903C96.1265 260.903 83.6651 260.044 83.7851 255.93C83.9051 251.815 110.765 252.777 110.765 252.777L146.58 222.466L125.9 141.952Z" fill="#FF8856"/>
<path d="M128.554 182.011C128.554 182.011 132.059 180.697 131.768 177.622C131.476 174.547 127.166 172.572 126 174.187C124.834 175.801 130.525 178.576 131.999 174.994C133.473 171.412 127.843 169.574 127.843 169.574" stroke="#4B7F78" stroke-width="2" stroke-miterlimit="10" stroke-linecap="round"/>
<path d="M112.46 250.974C133.348 250.974 150.281 234.254 150.281 213.629C150.281 193.003 133.348 176.283 112.46 176.283C91.5718 176.283 74.6387 193.003 74.6387 213.629C74.6387 234.254 91.5718 250.974 112.46 250.974Z" fill="#91C9C4"/>
<path d="M112.348 238.459C111.388 234.096 114.534 228.839 116.462 225.928C118.39 223.016 117.756 220.19 116.711 219.056C115.665 217.923 116.385 215.492 117.833 214.04C119.282 212.589 121.793 209.84 121.793 206.929C121.793 204.017 124.613 203.046 125.418 201.028C126.224 199.009 125.744 198.683 127.844 196.338C129.943 193.993 128.701 191.185 129.292 188.977C129.763 187.157 130.458 182.39 130.672 180.886C130.398 180.74 130.123 180.594 129.815 180.457C129.626 183.549 127.389 184.159 127.004 185.988C126.618 187.818 127.329 190.438 127.329 192.293C127.329 194.148 122.89 195.849 121.767 198.03C120.644 200.212 120.962 200.865 120.799 203.373C120.636 205.881 117.165 206.765 115.391 209.754C113.617 212.743 115.717 213.637 114.585 214.771C114.256 215.094 113.999 215.484 113.832 215.915C113.665 216.346 113.591 216.808 113.617 217.27C111.2 216.866 110.711 219.056 110.634 221.564C110.557 224.073 111.277 226.417 110.549 231.914C109.82 237.411 107.12 240.967 106.358 244.042C105.938 245.64 106.178 248.337 106.495 250.51C108.46 250.814 110.446 250.966 112.434 250.965H112.588C113.258 246.816 113.177 242.58 112.348 238.459Z" fill="#4B7F78"/>
<path d="M141.531 214.539C141.257 210.949 142.637 211.223 142.774 209.153C142.911 207.083 141.917 204.455 141.668 201.423C141.488 199.379 143.656 196.476 145.096 194.784C143.479 192.054 141.524 189.54 139.277 187.303C138.54 188.729 137.631 190.567 137.117 191.889C136.149 194.38 137.529 195.754 137.392 199.766C137.254 203.777 140.974 204.18 138.36 205.701C135.746 207.221 135.463 208.595 136.843 212.331C138.223 216.068 138.36 219.091 137.803 225.31C137.246 231.528 133.672 233.04 131.195 236.905C129.481 239.55 128.813 244.541 128.547 247.418C129.927 246.776 131.266 246.05 132.558 245.245C132.978 237.669 138.634 230.858 140.271 226.967C142.225 222.406 141.814 218.129 141.531 214.539Z" fill="#4B7F78"/>
<path d="M80.4253 233.477C79.7569 230.771 79.1655 227.027 79.9283 223.909C80.8767 223.044 81.6216 221.979 82.1092 220.791C82.5969 219.603 82.815 218.321 82.7479 217.037C82.5079 212.674 79.5255 212.193 80.6567 209.196C81.3239 207.469 81.678 205.636 81.7023 203.784C81.7023 203.784 84.6077 203.132 84.3677 201.113C84.1277 199.095 82.4308 197.557 84.282 195.453C86.1332 193.349 90.8212 191.734 90.2813 189.879C89.7413 188.023 89.4242 187.13 91.5668 186.443C92.5965 186.036 93.691 185.818 94.7979 185.799C94.7979 185.799 93.9923 182.81 96.332 182.243C98.6717 181.676 103.265 183.695 104.962 183.102C106.308 182.655 104.294 179.546 105.922 176.866C88.1644 179.941 74.666 195.23 74.666 213.645C74.6575 220.671 76.656 227.553 80.4253 233.477Z" fill="#4B7F78"/>
<path d="M100.736 242.908C101.465 240.641 102.836 238.949 102.27 235.874C101.705 232.799 102.51 230.54 104.37 227.465C106.23 224.39 106.084 218.653 105.578 214.453C105.073 210.252 107.678 209.849 111.706 207.659C115.734 205.468 117.277 199.662 116.711 196.991C116.146 194.32 119.282 194.569 122.111 193.194C124.33 192.112 126.747 183.214 127.681 179.452C127.021 179.168 126.353 178.894 125.667 178.645C125.076 182.08 122.942 181.582 121.305 182.295C119.454 183.102 118.648 185.533 120.019 187.792C121.391 190.051 117.114 191.434 114.02 192.808C110.926 194.182 111.363 197.498 111.766 200.401C112.169 203.304 110.309 202.831 107.969 202.668C105.63 202.505 104.661 202.909 103.213 205.245C101.765 207.581 102.57 212.443 100.47 214.461C98.3706 216.48 99.9819 218.258 100.95 222.87C101.919 227.482 99.9819 232.404 99.2363 237.42C98.7392 240.855 96.7251 244.806 95.4824 247.031C97.0784 247.82 98.728 248.494 100.419 249.049C100.359 246.997 100.308 244.24 100.736 242.908Z" fill="#4B7F78"/>
<path d="M92.9405 245.614C92.692 243.596 92.1692 241.268 91.0636 239.92C88.801 237.171 90.2066 234.586 92.272 232.962C94.3375 231.339 93.6433 228.522 91.4664 226.177C89.2896 223.832 89.2038 222.217 90.498 221.968C91.7921 221.719 92.5977 219.787 92.1092 218.653C91.6207 217.519 90.5751 215.501 91.7835 215.097C92.992 214.693 93.8833 214.53 93.8061 213.079C93.729 211.627 92.5977 210.253 94.1232 209.196C95.6488 208.14 98.1599 205.804 96.7886 204.103C95.4174 202.402 94.9374 201.681 95.8202 199.173C96.7029 196.665 102.197 194.81 105.419 194.569C108.641 194.329 109.858 192.851 109.858 190.524C109.858 188.196 110.664 187.612 112.841 187.208C115.018 186.804 114.452 183.893 115.506 183.575C116.561 183.257 118.326 181.96 118.249 180.139C118.197 178.988 119.912 177.958 121.231 177.339C120.066 177.073 118.883 176.85 117.675 176.687C113.749 179.074 110.818 183.008 111.067 184.589C111.307 186.366 109.696 186.847 107.519 187.337C105.342 187.827 103.405 190.326 101.142 192.585C98.8798 194.844 95.4945 194.612 92.272 194.689C89.0496 194.767 90.3351 197.438 91.0636 199.379C91.7921 201.32 92.272 204.532 89.5295 205.769C86.787 207.006 86.6242 208.432 87.1898 211.266C87.7554 214.101 85.4157 214.333 84.6187 215.947C83.8216 217.562 85.4243 221.29 87.0355 223.678C88.6468 226.065 85.6643 228.831 83.3246 231.279C82.219 232.421 82.0219 234.276 82.1076 235.908C85.0617 239.812 88.74 243.108 92.9405 245.614Z" fill="#4B7F78"/>
<path d="M150.28 213.629C150.281 209.6 149.621 205.598 148.326 201.784C147.178 203.115 145.892 203.803 146.218 204.868C146.766 206.663 148.789 209.703 147.461 213.294C145.902 217.43 145.335 221.876 145.806 226.272C146.355 230.833 143.047 233.59 140.159 235.934C138.067 237.652 137.27 240.538 136.996 242.033C141.149 238.56 144.491 234.217 146.786 229.309C149.082 224.402 150.274 219.049 150.28 213.629Z" fill="#4B7F78"/>
<path d="M123.003 243.39C123.32 240.487 123.003 238.236 122.146 233.693C121.289 229.149 124.246 223.833 126.431 221.668C128.44 219.702 129.624 217.041 129.739 214.23C129.662 212.048 129.336 209.454 130.596 207.762C131.856 206.07 132.85 205.091 132.37 203.717C131.89 202.343 131.967 200.891 133.013 197.172C134.059 193.453 135.516 191.271 135.516 188.359C135.581 187.033 135.739 185.713 135.987 184.409C135.438 183.979 134.881 183.55 134.273 183.163C133.219 184.555 133.124 185.671 132.739 187.879C132.25 190.627 130.562 192.242 130.879 194.827C131.196 197.412 131.282 196.124 131.282 199.276C131.282 202.428 128.136 205.581 127.974 207.599C127.811 209.618 125.154 209.618 124.588 210.829C124.023 212.04 125.077 213.989 125.077 216.841C125.077 219.693 121.366 223.79 119.429 227.835C117.492 231.881 119.266 235.351 119.343 240.933C119.403 244.67 117.783 248.586 116.721 250.768C118.162 250.605 119.592 250.361 121.006 250.038C121.886 247.892 122.554 245.666 123.003 243.39Z" fill="#4B7F78"/>
<path d="M24.8377 202.815C19.3441 218.198 16.2673 251.429 26.1233 257.295C30.4856 259.872 47.2578 257.622 67.9125 248.242C88.5671 238.863 135.507 223.746 134.941 220.19C134.376 216.634 125.103 221.788 125.103 221.788C125.103 221.788 140.024 215.08 139.458 212.898C138.892 210.717 124.614 216.944 124.614 216.944C124.614 216.944 140.041 210.072 139.861 207.891C139.681 205.709 123.166 212.091 123.166 212.091C123.166 212.091 134.136 203.502 133.407 200.925C132.679 198.348 111.33 208.956 111.33 208.956C111.33 208.956 116.309 200.315 114.852 198.597C113.396 196.879 101.791 209.514 91.781 213.714C81.7708 217.914 53.0514 222.458 53.0514 222.458L62.7274 144.804C62.7274 144.804 42.827 152.371 24.8377 202.815Z" fill="#FF8856"/>
<path d="M108.021 118.966C107.585 119.204 107.096 119.328 106.599 119.327C105.945 119.328 105.309 119.117 104.785 118.725C104.262 118.333 103.878 117.782 103.693 117.154L108.021 118.966Z" fill="white"/>
<path d="M106.71 129.505C106.409 128.261 106.188 126.999 106.05 125.726C105.581 125.781 105.109 125.81 104.636 125.812C102.065 125.812 97.78 124.567 94.0176 122.694C96.5973 125.709 102.254 128.363 106.71 129.505Z" fill="#231F20"/>
<path d="M108.706 112.491C107.312 113.351 105.729 113.852 104.095 113.951C102.447 114.047 100.8 113.753 99.2871 113.092C100.599 114.425 102.285 115.323 104.121 115.668C105.408 115.872 106.725 115.735 107.943 115.273C108.693 115.913 109.569 116.387 110.514 116.665C111.952 117.045 113.479 116.876 114.8 116.192C113.562 116.334 112.314 116.049 111.26 115.385C110.171 114.661 109.29 113.663 108.706 112.491Z" fill="#231F20"/>
<path d="M87.7546 99.9863L93.7196 114.21L93.8053 116.477L87.5918 108.636L87.7546 99.9863Z" fill="#231F20"/>
<path d="M13.7441 86.1653C15.183 86.1653 16.3495 84.9965 16.3495 83.5548C16.3495 82.1131 15.183 80.9443 13.7441 80.9443C12.3051 80.9443 11.1387 82.1131 11.1387 83.5548C11.1387 84.9965 12.3051 86.1653 13.7441 86.1653Z" fill="white"/>
<path d="M23.1757 86.1653C24.6146 86.1653 25.7811 84.9965 25.7811 83.5548C25.7811 82.1131 24.6146 80.9443 23.1757 80.9443C21.7368 80.9443 20.5703 82.1131 20.5703 83.5548C20.5703 84.9965 21.7368 86.1653 23.1757 86.1653Z" fill="white"/>
<path d="M32.5995 86.1653C34.0385 86.1653 35.2049 84.9965 35.2049 83.5548C35.2049 82.1131 34.0385 80.9443 32.5995 80.9443C31.1606 80.9443 29.9941 82.1131 29.9941 83.5548C29.9941 84.9965 31.1606 86.1653 32.5995 86.1653Z" fill="white"/>
<path d="M339.63 166.818C339.535 166.964 339.433 167.11 339.338 167.264H339.835L339.63 166.818ZM327.383 112.285L329.954 110.267C331.307 108.797 332.883 107.551 334.625 106.574L340.958 101.566C341.155 101.326 341.344 101.077 341.541 100.81C341.341 100.57 341.144 100.338 340.95 100.115C339.31 102.344 337.189 104.174 334.745 105.466C331.376 105.981 328.188 106.436 323.226 104.109C322.746 103.885 322.3 103.662 321.88 103.43C322.839 102.721 323.834 102.065 324.863 101.463C327.386 100.128 329.584 98.2514 331.299 95.9661C333.343 96.4818 335.464 96.6129 337.556 96.3526C337.299 96.0778 337.033 95.8115 336.767 95.5366C335.113 95.6873 333.446 95.5684 331.831 95.1845C332.367 94.3616 332.843 93.5004 333.253 92.6078L333.382 92.3243L332.688 91.7059L332.448 92.2298C332.013 93.1778 331.505 94.091 330.931 94.9612C329.935 94.6641 328.964 94.2908 328.025 93.8446C325.761 92.8702 323.741 91.4033 322.112 89.55C322.412 89.0261 322.703 88.4592 322.969 87.8322C323.4 86.9169 323.766 85.9727 324.066 85.0064L323.303 84.4825C322.998 85.5031 322.617 86.4994 322.163 87.4629C321.94 87.9353 321.718 88.3819 321.486 88.7942C320.779 87.8369 320.124 86.842 319.524 85.8138C318.192 83.2821 316.319 81.0764 314.039 79.3548C314.09 79.14 314.141 78.9253 314.184 78.7106L313.387 78.2468C313.387 78.4357 313.31 78.6247 313.259 78.8222C312.435 78.2892 311.576 77.8128 310.687 77.3964C308.445 76.2877 305.996 75.6616 303.497 75.5584C303.676 74.9941 303.825 74.4207 303.943 73.8406C303.66 73.789 303.368 73.7375 303.086 73.7031C302.949 74.3243 302.781 74.9378 302.58 75.5412C301.238 75.5967 299.901 75.7401 298.578 75.9707C296.006 76.5096 293.35 76.5096 290.779 75.9707C290.967 75.6786 291.147 75.3694 291.336 75.0516C290.89 75.1805 290.479 75.3265 290.041 75.4725L289.879 75.7302L289.587 75.6357L288.285 76.1253C288.644 76.2627 288.996 76.3829 289.339 76.4946C287.989 78.2327 286.316 79.6912 284.411 80.7891C284.145 80.9609 283.871 81.1241 283.554 81.2873L283.305 81.4419C282.183 82.0983 281.102 82.8211 280.066 83.6064L279.054 85.6935C279.38 85.3586 279.706 85.0493 280.04 84.7659C280.571 85.0665 281.137 85.3671 281.754 85.6248C283.285 86.3594 284.904 86.8934 286.57 87.2138C288.177 87.4985 289.817 87.5477 291.438 87.3598H291.798L291.567 87.5144C290.314 88.3299 289.176 89.3091 288.182 90.4261C286.954 91.8357 285.941 93.4187 285.173 95.1244C284.882 95.7428 284.642 96.3268 284.428 96.9023C281.961 96.8442 279.538 96.24 277.332 95.1329C276.382 94.6955 275.468 94.1843 274.598 93.6041C274.824 92.8602 275.09 92.1291 275.395 91.4139H274.426C274.195 91.9808 274.006 92.5219 273.835 93.0544C273.199 92.5762 272.603 92.0477 272.052 91.474H270.878C271.683 92.3922 272.588 93.2163 273.578 93.9305C272.931 96.7164 272.905 99.6107 273.501 102.408C273.701 103.582 273.835 104.766 273.903 105.955C273.466 105.783 273.004 105.586 272.532 105.363C267.561 103.035 265.864 100.278 264.099 97.3575C263.742 95.476 263.63 93.5562 263.765 91.6458H262.908C262.81 92.9405 262.85 94.2419 263.028 95.5281C262.676 94.9955 262.308 94.4716 261.888 93.9477C261.708 93.7243 261.519 93.4924 261.322 93.2691C260.979 92.8797 260.602 92.4932 260.191 92.1096L259.154 92.3844C259.825 92.9471 260.439 93.5742 260.988 94.2569C261.314 94.6448 261.62 95.049 261.905 95.4679C262.419 96.1894 262.873 96.9281 263.328 97.6839C263.825 100.999 264.279 104.143 262.102 108.97L261.973 109.245C261.751 109.726 261.528 110.172 261.296 110.585C260.59 109.626 259.937 108.628 259.342 107.596C258.757 106.59 258.119 105.615 257.431 104.675C256.43 103.32 255.224 102.129 253.857 101.145C254.44 98.7547 254.524 96.2694 254.106 93.8446L253.249 94.1194C253.615 96.274 253.559 98.4793 253.086 100.613C252.261 100.082 251.402 99.6056 250.515 99.187C248.723 98.3093 246.801 97.7291 244.824 97.4692C244.31 97.7183 243.813 97.976 243.324 98.2422C245.706 98.3171 248.044 98.9029 250.181 99.96C251.126 100.398 252.037 100.906 252.906 101.48C252.603 102.48 252.227 103.456 251.783 104.401C250.806 106.667 249.343 108.691 247.498 110.327C246.942 110.011 246.37 109.725 245.784 109.468C242.681 107.897 239.178 107.299 235.731 107.75C238.663 105.9 240.969 103.206 242.347 100.02C242.594 99.5107 242.814 98.9889 243.007 98.4569C242.579 98.6974 242.15 98.9465 241.747 99.1956C241.687 99.3416 241.61 99.4876 241.542 99.6422C240.198 102.784 237.909 105.427 234.994 107.201C234.737 107.733 234.471 108.3 234.197 108.918C237.445 108.42 240.599 108.06 245.407 110.31C245.887 110.533 246.332 110.765 246.752 110.997C245.79 111.704 244.792 112.361 243.761 112.964C241.24 114.298 239.043 116.172 237.325 118.452C235.023 117.88 232.629 117.784 230.289 118.169L229.912 119.114C232.183 118.7 234.513 118.741 236.768 119.234C236.234 120.058 235.758 120.919 235.345 121.811C234.236 124.052 233.609 126.501 233.503 129C231.212 128.258 228.788 128.024 226.398 128.313C226.278 128.63 226.166 128.94 226.046 129.249C228.55 128.883 231.105 129.115 233.503 129.927C233.558 131.275 233.701 132.618 233.931 133.947C234.473 136.521 234.473 139.181 233.931 141.755C233.105 141.225 232.247 140.749 231.36 140.329C229.117 139.22 226.668 138.594 224.169 138.491C224.818 136.498 225.077 134.398 224.932 132.307L224.015 134.883C223.898 136.115 223.636 137.329 223.235 138.499C223.07 138.491 222.904 138.491 222.738 138.499C222.61 138.86 222.507 139.169 222.43 139.401H222.918C222.815 139.667 222.704 139.934 222.575 140.209L223.347 140.681C223.544 140.234 223.715 139.822 223.87 139.384C226.342 139.443 228.77 140.047 230.983 141.153C231.925 141.591 232.833 142.1 233.7 142.674C233.404 143.677 233.031 144.656 232.586 145.603L232.328 146.135L233.083 146.599C233.186 146.401 233.28 146.195 233.383 145.98C233.809 145.086 234.17 144.162 234.463 143.215C236.522 144.852 238.22 146.899 239.45 149.227C239.853 149.897 240.256 150.567 240.702 151.237L242.776 152.491C243.067 151.967 243.359 151.409 243.633 150.773C245.201 147.661 245.798 144.147 245.347 140.69C247.211 143.633 249.913 145.948 253.103 147.338C253.712 147.621 254.303 147.861 254.869 148.076C254.81 150.554 254.207 152.988 253.103 155.205C252.679 156.122 252.19 157.006 251.638 157.851L252.966 158.658L253.172 158.314C252.949 158.314 252.717 158.229 252.486 158.177C253.02 157.353 253.496 156.492 253.909 155.6C255.02 153.358 255.645 150.905 255.743 148.403C256.759 148.728 257.803 148.955 258.862 149.081C258.914 149.085 258.965 149.085 259.017 149.081C260.94 149.254 262.877 149.164 264.776 148.815C265.396 151.775 265.228 154.847 264.287 157.722C263.202 157.759 262.12 157.865 261.048 158.04L261.245 158.898C262.145 158.753 263.052 158.655 263.962 158.606C263.782 159.053 263.593 159.517 263.37 159.989C262.981 160.828 262.538 161.64 262.042 162.42L262.316 163.605C263.027 162.583 263.647 161.499 264.167 160.367C264.459 159.749 264.707 159.165 264.913 158.589C267.385 158.647 269.814 159.251 272.026 160.359C272.971 160.799 273.881 161.307 274.752 161.879C274.179 163.758 273.357 165.552 272.309 167.213H273.312C273.681 166.594 274.041 165.924 274.392 165.177C274.809 164.282 275.17 163.361 275.472 162.42C277.182 163.725 278.62 165.354 279.706 167.213H280.76C279.503 164.975 277.789 163.028 275.729 161.501C276.365 158.717 276.392 155.827 275.806 153.032C275.603 151.855 275.466 150.668 275.395 149.476C275.84 149.657 276.303 149.854 276.783 150.077C281.737 152.397 283.434 155.145 285.199 158.048C285.619 160.848 286.013 163.537 284.796 167.213H285.731C286.465 164.85 286.675 162.356 286.348 159.903C288.206 162.851 290.91 165.168 294.104 166.551C294.644 166.809 295.149 167.024 295.646 167.213H298.766C298.084 167.073 297.411 166.889 296.752 166.663C296.697 165.318 296.554 163.978 296.324 162.652C295.781 160.078 295.781 157.419 296.324 154.844C297.15 155.374 298.008 155.85 298.895 156.27C301.131 157.38 303.575 158.006 306.068 158.108C305.169 161.039 305.019 164.149 305.631 167.153L305.211 167.213H314.707C312.024 166.543 309.225 166.478 306.514 167.024C305.89 164.061 306.056 160.986 306.994 158.108C308.338 158.056 309.678 157.915 311.005 157.687C313.573 157.144 316.227 157.144 318.795 157.687C318.264 158.514 317.789 159.374 317.372 160.264C316.301 162.432 315.683 164.797 315.555 167.213H316.413C316.535 164.929 317.118 162.694 318.127 160.642C318.564 159.692 319.071 158.777 319.644 157.902C320.654 158.224 321.639 158.621 322.592 159.087C324.851 160.067 326.867 161.533 328.497 163.382C328.197 163.906 327.897 164.481 327.64 165.1C327.319 165.798 327.033 166.512 326.783 167.239H327.725C327.931 166.68 328.18 166.088 328.462 165.478C328.685 164.997 328.917 164.55 329.148 164.129C329.857 165.088 330.513 166.086 331.111 167.118C331.137 167.156 331.16 167.197 331.179 167.239H332.225L331.873 166.654C331.197 165.488 330.447 164.367 329.628 163.296C331.079 160.932 333.101 158.974 335.507 157.602L335.13 156.786C332.663 158.201 330.57 160.189 329.028 162.583C327.354 160.732 325.31 159.254 323.029 158.246C322.133 157.826 321.211 157.464 320.269 157.163C321.901 155.101 323.945 153.401 326.268 152.173C327.433 151.5 328.553 150.751 329.619 149.931C331.136 150.837 332.484 152 333.605 153.367L332.448 150.971C331.768 150.371 331.043 149.826 330.279 149.339C330.625 149.033 330.954 148.709 331.265 148.368L330.879 147.509C330.447 147.989 329.983 148.44 329.491 148.858C328.96 148.557 328.394 148.257 327.777 147.999C324.677 146.428 321.177 145.83 317.732 146.281C320.66 144.426 322.965 141.733 324.349 138.551C324.64 137.932 324.88 137.34 325.094 136.764C325.386 136.764 325.686 136.764 325.951 136.764L325.591 135.897H325.411C325.411 135.811 325.463 135.734 325.48 135.656L324.906 134.402C324.794 134.883 324.649 135.382 324.477 135.897C323.136 135.955 321.799 136.095 320.475 136.318C317.907 136.866 315.252 136.866 312.684 136.318C313.214 135.491 313.689 134.63 314.107 133.741C315.213 131.493 315.838 129.039 315.941 126.535C317.794 127.149 319.743 127.417 321.692 127.325L321.298 126.466C319.476 126.499 317.662 126.208 315.941 125.607C315.887 124.3 315.749 122.997 315.53 121.708C315.53 121.708 315.53 121.63 315.53 121.596C314.988 119.019 314.988 116.357 315.53 113.78H315.581C316.407 114.299 317.266 114.764 318.152 115.171C319.396 115.774 320.701 116.244 322.043 116.571L322.9 115.858C321.373 115.545 319.89 115.043 318.487 114.364C317.537 113.929 316.623 113.421 315.753 112.844C316.055 111.847 316.43 110.873 316.875 109.932C317.85 107.664 319.314 105.64 321.16 104.006C321.692 104.306 322.258 104.598 322.875 104.864C325.975 106.435 329.475 107.034 332.919 106.582C330.645 108.005 328.747 109.956 327.383 112.268V112.285ZM313.816 80.1965C315.877 81.8316 317.576 83.8793 318.804 86.2089C319.475 87.3761 320.223 88.4979 321.041 89.5672C319.444 92.1326 317.2 94.2303 314.536 95.6483C313.08 92.9509 310.974 90.6622 308.408 88.9917C310.256 87.3147 311.731 85.266 312.736 82.9794C313.165 82.0745 313.526 81.1385 313.816 80.1793V80.1965ZM304.68 122.884C304.428 124.846 303.848 126.75 302.966 128.519C302.743 128.991 302.52 129.438 302.289 129.859C301.587 128.896 300.935 127.899 300.334 126.87C298.998 124.341 297.126 122.137 294.849 120.411C295.492 117.627 295.518 114.737 294.927 111.942C294.728 110.765 294.591 109.578 294.515 108.386C294.961 108.558 295.424 108.755 295.904 108.979C296.714 109.356 297.498 109.787 298.252 110.267C301.457 112.277 302.863 114.562 304.311 116.949C304.705 118.896 304.829 120.887 304.68 122.867V122.884ZM284.762 107.553C287.719 106.931 290.787 107.1 293.658 108.042C293.711 109.39 293.852 110.733 294.078 112.062C294.619 114.633 294.619 117.29 294.078 119.861C293.254 119.331 292.395 118.858 291.507 118.444C289.268 117.333 286.821 116.704 284.325 116.597C285.22 113.666 285.37 110.557 284.762 107.553ZM291.138 119.251C292.085 119.683 292.996 120.189 293.864 120.763C293.564 121.766 293.189 122.745 292.741 123.692C291.767 125.958 290.303 127.979 288.456 129.61C287.933 129.309 287.368 129.017 286.742 128.751C283.642 127.179 280.142 126.581 276.697 127.033C279.624 125.176 281.928 122.484 283.314 119.303C283.599 118.684 283.848 118.092 284.059 117.525C286.518 117.572 288.936 118.164 291.138 119.26V119.251ZM282.482 118.882C280.168 123.872 277.417 125.59 274.512 127.308C271.152 127.815 267.964 128.278 262.993 125.951L262.316 125.616L261.648 125.272L262.308 124.791C263.07 124.259 263.85 123.786 264.63 123.305C267.155 121.969 269.355 120.092 271.075 117.808C273.855 118.456 276.743 118.482 279.534 117.886C280.706 117.689 281.888 117.555 283.074 117.482C282.902 117.954 282.739 118.409 282.482 118.89V118.882ZM274.82 128.167C278.18 127.66 281.377 127.196 286.339 129.524C286.819 129.747 287.265 129.97 287.685 130.202C286.724 130.911 285.725 131.568 284.694 132.169C282.174 133.506 279.977 135.379 278.257 137.658C275.479 137.017 272.595 136.993 269.807 137.589C268.629 137.785 267.442 137.919 266.25 137.993C266.43 137.546 266.619 137.091 266.841 136.61C269.164 131.654 271.915 129.953 274.82 128.167ZM285.156 132.934C286.321 132.257 287.44 131.506 288.507 130.683C291.068 132.289 293.163 134.54 294.584 137.211C291.888 138.663 289.601 140.772 287.933 143.344C286.258 141.491 284.214 140.011 281.934 138.998C281.037 138.579 280.116 138.218 279.174 137.915C280.803 135.862 282.84 134.172 285.156 132.951V132.934ZM289.219 130.082C291.063 128.402 292.537 126.354 293.547 124.07C293.969 123.174 294.33 122.249 294.627 121.304C296.687 122.937 298.384 124.986 299.606 127.316C300.281 128.481 301.031 129.6 301.851 130.666C300.254 133.236 298.007 135.337 295.338 136.756C293.886 134.059 291.782 131.77 289.219 130.099V130.082ZM302.443 131.37C304.119 133.222 306.162 134.702 308.442 135.716C309.335 136.136 310.254 136.498 311.193 136.799C309.563 138.864 307.52 140.564 305.194 141.789C304.031 142.465 302.912 143.214 301.843 144.031C299.285 142.429 297.192 140.18 295.775 137.512C298.479 136.065 300.775 133.959 302.451 131.388L302.443 131.37ZM304.054 114.776C302.453 112.232 300.209 110.158 297.549 108.764C297.163 108.558 296.752 108.352 296.324 108.145C295.706 107.862 295.115 107.613 294.541 107.398C294.555 106.177 294.719 104.963 295.029 103.782C295.346 102.583 295.773 101.415 296.306 100.295C296.744 99.3453 297.251 98.4294 297.823 97.5551C298.825 97.8552 299.802 98.2313 300.746 98.6803C303.005 99.6594 305.021 101.126 306.651 102.975C306.351 103.499 306.051 104.074 305.794 104.693C304.209 107.806 303.602 111.328 304.054 114.793V114.776ZM301.114 97.8643C300.219 97.4445 299.297 97.0831 298.355 96.7821C298.797 96.1981 299.278 95.6443 299.795 95.1244C301.17 93.8309 302.698 92.7116 304.345 91.7918C305.51 91.1186 306.629 90.3698 307.696 89.55C310.259 91.1489 312.356 93.3978 313.773 96.0692C311.13 97.5089 308.876 99.5726 307.208 102.082L307.122 102.219C305.443 100.369 303.397 98.892 301.114 97.8815V97.8643ZM303.223 76.3314C305.695 76.3901 308.124 76.9942 310.336 78.1008C311.278 78.5387 312.187 79.0469 313.053 79.621C312.757 80.6258 312.382 81.6052 311.93 82.5499C310.956 84.816 309.493 86.8373 307.645 88.4678C307.114 88.1672 306.548 87.8666 305.931 87.6089C302.828 86.0387 299.325 85.4402 295.878 85.8911C298.807 84.0381 301.113 81.3446 302.494 78.1609C302.768 77.4909 303.008 76.924 303.223 76.3486V76.3314ZM290.624 86.5524C289.119 86.6658 287.606 86.5559 286.133 86.226C284.776 85.9002 283.458 85.4309 282.2 84.826C281.72 84.5941 281.274 84.3708 280.854 84.1389C281.812 83.4327 282.808 82.779 283.836 82.1806L284.025 82.0603L285.105 81.399C287.117 80.1888 288.866 78.5851 290.247 76.6835C293.027 77.3314 295.915 77.3578 298.706 76.7609C299.878 76.5622 301.06 76.4246 302.246 76.3486C302.074 76.7952 301.877 77.259 301.654 77.74C299.332 82.7131 296.589 84.4137 293.684 86.1831C292.681 86.3549 291.67 86.5009 290.624 86.5696V86.5524ZM286.039 95.5281C286.723 94.0076 287.608 92.5862 288.67 91.3022C289.715 90.0822 290.934 89.023 292.287 88.1586C292.853 87.7807 293.427 87.4371 294.001 87.085C297.369 86.5696 300.557 86.1144 305.528 88.442C305.999 88.6654 306.445 88.8887 306.865 89.1206C305.904 89.8296 304.906 90.4862 303.874 91.0875C302.156 92.0478 300.564 93.2193 299.135 94.5747C298.51 95.1936 297.936 95.8629 297.421 96.5759C295.365 96.0609 293.231 95.9356 291.13 96.2066C290.393 96.2839 289.681 96.387 288.97 96.4986C287.796 96.7015 286.611 96.8391 285.422 96.9109C285.619 96.4299 285.816 95.9661 286.039 95.5281ZM285.122 97.8128C286.467 97.7568 287.807 97.6134 289.133 97.3833C289.99 97.2545 290.761 97.1342 291.584 97.0483C293.366 96.8432 295.169 96.9478 296.915 97.3575C296.387 98.1856 295.912 99.0462 295.492 99.9343C295.076 100.81 294.721 101.714 294.429 102.64C293.968 104.089 293.709 105.595 293.658 107.115C290.733 106.216 287.63 106.069 284.634 106.685C284.013 103.725 284.182 100.653 285.122 97.7784V97.8128ZM283.408 116.64C282.066 116.696 280.729 116.84 279.406 117.07C276.837 117.613 274.184 117.613 271.615 117.07C272.145 116.244 272.618 115.383 273.029 114.493C274.141 112.25 274.769 109.797 274.872 107.295C277.796 108.196 280.899 108.347 283.896 107.733C284.508 110.683 284.336 113.743 283.399 116.606L283.408 116.64ZM274.426 94.5403C275.251 95.0726 276.109 95.5489 276.997 95.9661C279.234 97.0754 281.678 97.7016 284.171 97.8042C283.272 100.738 283.122 103.85 283.734 106.857C280.779 107.475 277.714 107.303 274.846 106.359C274.79 105.014 274.647 103.674 274.418 102.348C273.87 99.7626 273.87 97.0911 274.418 94.5059L274.426 94.5403ZM262.119 110.971C262.342 110.568 262.565 110.112 262.77 109.683C264.343 106.572 264.941 103.057 264.485 99.5993C266.343 102.547 269.047 104.864 272.241 106.247C272.858 106.531 273.441 106.78 274.006 106.995C273.953 109.47 273.35 111.902 272.241 114.115C271.81 115.063 271.305 115.977 270.732 116.846C269.734 116.546 268.76 116.17 267.818 115.721C265.668 114.777 263.736 113.397 262.145 111.667L261.905 111.392L262.119 110.971ZM261.408 112.191C261.639 112.449 261.879 112.706 262.145 112.964C263.684 114.451 265.471 115.658 267.424 116.528C268.314 116.955 269.233 117.317 270.175 117.611C268.547 119.678 266.503 121.378 264.176 122.601C263.559 122.979 262.925 123.365 262.299 123.786C261.811 124.113 261.322 124.456 260.834 124.843C258.274 123.243 256.181 120.994 254.766 118.324C257.46 116.86 259.741 114.739 261.399 112.157L261.408 112.191ZM252.512 104.873C252.93 103.978 253.291 103.057 253.592 102.116C254.946 103.13 256.123 104.364 257.071 105.766C257.611 106.531 258.091 107.321 258.571 108.12C259.246 109.282 259.993 110.401 260.808 111.469C259.213 114.038 256.969 116.139 254.303 117.559C254.037 117.13 253.772 116.7 253.489 116.271C252.148 114.103 250.334 112.267 248.184 110.903C250.03 109.206 251.501 107.14 252.503 104.839L252.512 104.873ZM244.121 113.746C245.284 113.069 246.403 112.321 247.472 111.504C249.817 112.942 251.76 114.951 253.12 117.344C253.266 117.568 253.403 117.791 253.54 118.023C253.266 118.183 252.98 118.355 252.683 118.538C250.324 119.919 248.329 121.845 246.864 124.156C245.183 122.323 243.14 120.86 240.865 119.861C239.973 119.438 239.054 119.076 238.113 118.779C239.738 116.688 241.782 114.962 244.113 113.711L244.121 113.746ZM236.074 122.232C236.513 121.286 237.02 120.373 237.591 119.5C238.589 119.8 239.563 120.177 240.505 120.625C242.763 121.61 244.781 123.075 246.418 124.92C246.11 125.453 245.818 126.019 245.561 126.638C243.999 129.743 243.402 133.247 243.847 136.696C241.995 133.765 239.308 131.458 236.134 130.073C235.517 129.781 234.925 129.541 234.36 129.326C234.398 126.853 234.981 124.419 236.065 122.197L236.074 122.232ZM242.776 150.447C242.553 150.919 242.33 151.366 242.099 151.787C241.393 150.827 240.741 149.829 240.145 148.798C238.805 146.269 236.93 144.065 234.651 142.339C235.297 139.556 235.324 136.664 234.728 133.87C234.529 132.693 234.394 131.506 234.325 130.314C234.771 130.486 235.225 130.683 235.705 130.907C240.667 133.234 242.364 135.974 244.13 138.886C244.627 142.227 245.09 145.422 242.767 150.412L242.776 150.447ZM253.412 146.582C248.432 144.245 246.744 141.497 244.978 138.577C244.464 135.21 244.01 132.015 246.332 127.042C246.555 126.569 246.778 126.114 247.01 125.693C247.72 126.654 248.375 127.655 248.972 128.691C250.307 131.218 252.179 133.42 254.457 135.141C253.813 137.927 253.783 140.82 254.372 143.618C254.574 144.795 254.712 145.982 254.783 147.174C254.329 146.96 253.874 146.762 253.403 146.547L253.412 146.582ZM254.706 134.179C252.645 132.546 250.949 130.498 249.726 128.167C249.052 127.001 248.305 125.88 247.489 124.808C248.697 122.801 250.34 121.092 252.297 119.809C252.863 119.432 253.429 119.079 254.012 118.727C255.463 121.424 257.567 123.713 260.131 125.384C258.286 127.066 256.81 129.113 255.794 131.396C255.588 131.834 255.409 132.255 255.237 132.676C255.066 133.097 254.851 133.715 254.706 134.179ZM264.562 147.922C262.824 148.243 261.053 148.341 259.291 148.214C259.111 148.214 258.922 148.214 258.734 148.154C257.693 148.016 256.668 147.774 255.674 147.432C255.619 146.087 255.476 144.747 255.246 143.421C254.704 140.844 254.704 138.182 255.246 135.605L256.008 136.069C256.603 136.42 257.215 136.741 257.843 137.031C259.329 137.75 260.902 138.276 262.522 138.594C263.344 138.757 264.178 138.849 265.016 138.869C264.111 141.801 263.955 144.913 264.562 147.922ZM262.488 137.683C261.005 137.374 259.566 136.884 258.202 136.223C257.342 135.829 256.511 135.373 255.717 134.858C255.631 134.815 255.554 134.755 255.469 134.703C255.383 134.651 255.546 134.445 255.589 134.308C255.864 133.445 256.196 132.602 256.583 131.783C257.559 129.516 259.022 127.492 260.868 125.856C261.305 126.114 261.785 126.363 262.291 126.603L262.573 126.749C265.675 128.316 269.174 128.915 272.618 128.467C269.689 130.321 267.384 133.015 266.002 136.197C265.71 136.816 265.47 137.409 265.256 137.975C264.327 137.978 263.4 137.892 262.488 137.718V137.683ZM265.916 138.877C267.261 138.822 268.601 138.678 269.927 138.448C272.496 137.909 275.148 137.909 277.717 138.448C277.186 139.274 276.711 140.135 276.295 141.025C275.186 143.269 274.559 145.721 274.452 148.222C271.531 147.321 268.43 147.171 265.436 147.784C264.819 144.835 264.988 141.775 265.924 138.912L265.916 138.877ZM274.906 160.968C274.079 160.444 273.22 159.97 272.335 159.551C270.097 158.44 267.649 157.813 265.153 157.713C266.045 154.781 266.193 151.672 265.582 148.669C268.535 148.042 271.601 148.208 274.469 149.15C274.524 150.498 274.668 151.84 274.898 153.17C275.449 155.751 275.455 158.419 274.915 161.003L274.906 160.968ZM284.856 155.892C283.005 152.961 280.318 150.654 277.143 149.27C276.526 148.978 275.935 148.729 275.36 148.523C275.418 146.048 276.021 143.617 277.126 141.402C277.563 140.453 278.07 139.537 278.643 138.663C279.643 138.966 280.62 139.342 281.565 139.788C283.825 140.767 285.841 142.233 287.47 144.082C287.17 144.615 286.87 145.182 286.613 145.8C285.024 148.922 284.415 152.452 284.865 155.927L284.856 155.892ZM294.438 165.744C289.467 163.416 287.77 160.659 286.005 157.739C285.499 154.381 285.036 151.185 287.359 146.212C287.582 145.731 287.813 145.285 288.045 144.864C288.75 145.825 289.405 146.823 290.007 147.853C291.338 150.38 293.208 152.582 295.484 154.303C294.837 157.092 294.811 159.989 295.407 162.789C295.606 163.963 295.741 165.148 295.809 166.337C295.381 166.199 294.918 166.002 294.447 165.778L294.438 165.744ZM295.741 153.393C293.684 151.756 291.988 149.708 290.761 147.381C290.093 146.211 289.345 145.089 288.524 144.022C290.12 141.454 292.364 139.353 295.029 137.932C296.481 140.632 298.585 142.924 301.149 144.598C299.3 146.275 297.826 148.323 296.821 150.61C296.396 151.522 296.038 152.463 295.749 153.427L295.741 153.393ZM306.334 157.232C303.867 157.174 301.444 156.57 299.237 155.463C298.288 155.025 297.374 154.514 296.504 153.934C296.8 152.936 297.172 151.963 297.618 151.022C298.608 148.752 300.086 146.729 301.946 145.096C302.477 145.396 303.043 145.697 303.66 145.955C306.76 147.525 310.26 148.124 313.704 147.673C310.771 149.524 308.463 152.218 307.079 155.403C306.797 156.107 306.557 156.691 306.342 157.267L306.334 157.232ZM327.391 148.781C327.863 149.004 328.308 149.227 328.728 149.459C327.767 150.168 326.769 150.825 325.737 151.426C323.217 152.762 321.02 154.636 319.301 156.914C316.524 156.267 313.639 156.24 310.85 156.837C309.673 157.036 308.485 157.173 307.294 157.249C307.474 156.803 307.671 156.348 307.894 155.867C310.216 150.885 312.959 149.193 315.864 147.423C319.232 146.908 322.42 146.444 327.391 148.781ZM320.535 137.151C321.71 136.952 322.894 136.814 324.083 136.739C323.903 137.185 323.706 137.649 323.483 138.13C321.161 143.103 318.418 144.804 315.513 146.565C312.153 147.08 308.965 147.535 304.003 145.216C303.523 144.993 303.077 144.761 302.657 144.529C303.614 143.821 304.61 143.167 305.64 142.571C308.159 141.231 310.356 139.355 312.076 137.074C314.869 137.728 317.773 137.754 320.578 137.151H320.535ZM313.267 133.32C312.828 134.266 312.321 135.179 311.75 136.051C310.753 135.748 309.779 135.371 308.836 134.926C306.57 133.935 304.551 132.454 302.923 130.589C303.223 130.065 303.523 129.507 303.78 128.871C304.493 127.391 305.017 125.827 305.34 124.216C305.674 122.428 305.723 120.599 305.485 118.796C307.015 121.25 309.153 123.265 311.69 124.645C312.17 124.92 312.684 125.186 313.233 125.444C313.85 125.727 314.433 125.976 315.007 126.183C314.958 128.661 314.364 131.098 313.267 133.32ZM314.981 125.238C314.536 125.066 314.073 124.868 313.601 124.645C313.13 124.422 312.804 124.259 312.436 124.052C308.348 121.854 306.788 119.32 305.168 116.64C304.663 113.282 304.208 110.078 306.522 105.114C306.754 104.633 306.977 104.186 307.208 103.765C307.915 104.725 308.57 105.723 309.171 106.754C310.502 109.281 312.371 111.483 314.647 113.204C314.001 115.993 313.974 118.89 314.57 121.69C314.57 121.897 314.63 122.103 314.656 122.3C314.828 123.272 314.948 124.253 315.016 125.238H314.981ZM315.984 109.545C315.565 110.437 315.205 111.355 314.904 112.294L314.758 112.182C312.77 110.565 311.128 108.561 309.933 106.29C309.259 105.123 308.509 104.001 307.688 102.932L307.834 102.7C309.429 100.242 311.62 98.23 314.201 96.8508C315.65 99.5525 317.754 101.845 320.321 103.516C318.48 105.201 317.014 107.255 316.018 109.545H315.984ZM321.032 102.915C318.471 101.309 316.376 99.0584 314.956 96.387C317.651 94.9349 319.938 92.8258 321.606 90.2543C323.281 92.1068 325.325 93.5873 327.605 94.6004C328.496 95.0226 329.415 95.3813 330.357 95.6741C328.724 97.7394 326.681 99.4417 324.357 100.673C323.213 101.348 322.114 102.097 321.066 102.915H321.032Z" fill="#52E69A"/>
<path d="M255.551 79.4916L261.841 91.7397L276.36 91.379L282.41 78.8904L267.284 52.4531L255.551 79.4916Z" fill="#FF8856"/>
<path d="M268.972 69.0739C268.972 72.5136 267.608 75.8125 265.181 78.2448C262.754 80.677 259.463 82.0434 256.03 82.0434C248.883 82.0434 238.727 75.3697 238.127 54.5583L246.834 43.8906L267.283 52.4797L268.972 69.0739Z" fill="#FF8856"/>
<path d="M339.834 167.247H263.052L262.238 163.639L261.964 162.454L261.167 158.933L260.97 158.056L258.939 149.098L258.887 148.9L258.733 148.188L255.99 136.103L255.716 134.892L255.587 134.342L255.219 132.719L252.296 119.835L252.279 119.749L252.708 118.504L253.111 117.31L253.479 116.236L257.062 105.732L257.413 104.701L260.97 94.2823L261.304 93.2946L261.835 91.7399L262.932 91.7142L263.824 91.6884L270.937 91.5166L272.111 91.4823L274.485 91.4221L275.454 91.405L276.354 91.3792L279.113 85.6846L280.124 83.5975L282.404 78.8906L284.427 80.7802L285.104 81.4158L290.623 86.5693L291.497 87.3853L291.626 87.5055L292.286 88.1239L299.142 94.54L299.794 95.1412L307.207 102.081L307.867 102.7L312.409 106.943L314.792 112.182L315.512 113.771L318.151 119.569L321.262 126.406L321.657 127.282L324.87 134.351L325.445 135.605L325.556 135.854L325.967 136.755L330.861 147.509L331.247 148.368L332.43 150.97L333.535 153.393L335.078 156.794L335.455 157.61L339.629 166.8L339.834 167.247Z" fill="#3D4D80"/>
<path d="M262.561 142.914L259.288 148.248L258.885 148.901L258.782 149.073L253.091 158.332L252.885 158.675L251.557 157.868L242.695 152.483L240.621 151.229L233.028 146.599L232.274 146.135L223.292 140.681L222.521 140.209L222.178 140.003L222.375 139.436C222.452 139.204 222.555 138.895 222.683 138.534C222.992 137.675 223.429 136.395 223.96 134.892L224.877 132.315C225.229 131.353 225.597 130.323 225.983 129.258C226.103 128.948 226.214 128.639 226.334 128.321C227.397 125.41 228.597 122.223 229.823 119.097L230.2 118.152C231.519 114.819 232.865 111.598 234.108 108.901C234.382 108.309 234.648 107.742 234.905 107.184C235.567 105.773 236.326 104.409 237.176 103.104C238.397 101.512 239.92 100.177 241.658 99.1786C242.07 98.9295 242.515 98.6804 242.918 98.4399L243.304 98.2338C243.792 97.9675 244.289 97.7098 244.804 97.4608C247.54 96.1575 250.36 95.0385 253.245 94.111L254.102 93.8362C256.048 93.2177 257.805 92.7282 259.15 92.376L260.187 92.1011C261.233 91.8435 261.85 91.7061 261.85 91.7061V93.9392V95.4595L262.047 108.962V110.903V111.598V112.895L262.201 123.718V124.783V125.642V126.638L262.356 137.718V138.628L262.561 142.914Z" fill="#3D4D80"/>
<path d="M307.333 128.115C307.333 128.115 309.998 158.916 299.105 169.102C288.212 179.289 288.941 180.74 296.2 179.048C296.2 179.048 289.832 186.401 289.583 190.214C289.335 194.028 294.186 188.35 294.186 188.35C294.186 188.35 289.832 193.04 291.358 194.251C292.883 195.462 297.811 189.725 297.811 189.725C297.811 189.725 294.829 192.877 296.525 193.607C298.222 194.337 303.947 188.35 303.947 188.35C303.947 188.35 301.282 191.339 301.685 192.07C302.088 192.8 305.799 194.174 316.452 179.701C327.105 165.229 346.054 135.158 347.991 118.908C349.928 102.657 327.902 91.2334 327.902 91.2334L307.333 128.115Z" fill="#FF8856"/>
<path d="M341.693 100.956L340.964 101.531L334.631 106.539L329.96 110.232L327.389 112.251L322.855 115.832L321.998 116.545L318.201 119.551L315.544 121.647L314.739 122.283L312.519 124L311.765 124.602L307.385 128.037L305.414 124.155L304.728 122.807L298.343 110.206L297.606 108.729L295.087 103.747L294.495 102.596L291.65 96.9791L291.222 96.1202L288.736 91.2158L288.308 90.3569L286.696 87.1789L286.199 86.1826L284.1 82.0169L283.697 81.2181L282.488 78.8303C284.381 77.7463 286.352 76.8046 288.385 76.0131L289.687 75.5235L290.142 75.3603C290.562 75.2143 290.999 75.0683 291.436 74.9395C295.211 73.6501 299.217 73.1844 303.186 73.5738C303.477 73.5738 303.769 73.6597 304.043 73.7112C305.734 74.0037 307.364 74.5847 308.859 75.429C310.376 76.2879 311.928 77.1469 313.496 78.0917L314.293 78.5555C317.293 80.3248 320.352 82.2144 323.412 84.3273L324.175 84.8513C327.154 86.9343 330.016 89.1824 332.745 91.5851L333.439 92.2036C334.582 93.2343 335.71 94.3108 336.825 95.4331C337.09 95.7079 337.356 95.9742 337.613 96.249C338.756 97.4458 339.884 98.6998 340.998 100.011C341.198 100.234 341.395 100.466 341.59 100.707L341.693 100.956Z" fill="#3D4D80"/>
<path d="M222.15 140.003L189.729 131.517C189.729 131.517 182.71 120.6 178.836 119.629C174.962 118.659 179.324 127.875 179.324 127.875C179.324 127.875 169.16 122.781 165.766 122.781C162.372 122.781 167.703 127.634 167.703 127.634C167.703 127.634 162.303 124.645 161.086 126.423C159.869 128.201 162.543 130.95 167.137 131.834C167.137 131.834 163.272 130.701 163.186 132.642C163.101 134.583 167.943 135.957 167.943 135.957C167.726 135.862 167.489 135.823 167.253 135.842C167.017 135.861 166.789 135.938 166.59 136.066C166.391 136.195 166.226 136.37 166.111 136.577C165.996 136.784 165.933 137.017 165.929 137.254C165.689 139.195 180.773 143.266 180.773 143.266C180.773 143.266 207.152 176.171 223.847 177.382C240.543 178.593 252.884 158.71 252.884 158.71L222.15 140.003Z" fill="#FF8856"/>
<path d="M307.336 128.115C304.457 125.045 302.518 121.211 301.748 117.069C304.622 120.143 306.561 123.975 307.336 128.115Z" fill="#0052E8"/>
<path d="M243.941 63.9114C244.556 63.9114 245.055 63.4116 245.055 62.795C245.055 62.1785 244.556 61.6787 243.941 61.6787C243.325 61.6787 242.826 62.1785 242.826 62.795C242.826 63.4116 243.325 63.9114 243.941 63.9114Z" fill="#231F20"/>
<path d="M253.663 60.2092C254.279 60.2092 254.778 59.7094 254.778 59.0929C254.778 58.4764 254.279 57.9766 253.663 57.9766C253.048 57.9766 252.549 58.4764 252.549 59.0929C252.549 59.7094 253.048 60.2092 253.663 60.2092Z" fill="#231F20"/>
<path d="M248.578 60.21C248.578 60.21 246.924 70.1905 252.409 67.9402" stroke="#231F20" stroke-miterlimit="10" stroke-linecap="round"/>
<path d="M257.727 48.5713L264.626 59.239L267.043 58.5175L266.803 49.1811L257.727 48.5713Z" fill="#231F20"/>
<path d="M270.07 60.5782L273.336 66.8827L274.304 57.1855L270.07 60.5782Z" fill="#231F20"/>
<path d="M247.418 78.8564C249.841 80.8448 252.857 81.9662 255.988 82.043C257.688 82.043 259.371 81.7075 260.941 81.0558C262.511 80.404 263.938 79.4486 265.139 78.2443C266.341 77.04 267.294 75.6102 267.945 74.0367C268.595 72.4631 268.93 70.7766 268.93 69.0734L268.793 67.7507C266.747 66.9353 264.566 66.5185 262.365 66.5225C254.231 66.5225 247.598 72.0195 247.418 78.8564Z" fill="#231F20"/>
<path d="M242.284 38.5827L237.999 26.7812L226.729 37.7925L238.796 41.8208" fill="white"/>
<path d="M230.783 47.824C231.511 49.3615 234.031 51.8695 237.931 54.472L248.078 45.5136L259.819 35.1465L259.536 34.425L246.938 29.4434L234.434 40.4374L230.877 43.5639C230.545 44.177 230.343 44.8526 230.286 45.5479C230.274 46.3349 230.444 47.1139 230.783 47.824Z" fill="white"/>
<path d="M234.434 40.4374C239.004 42.1209 243.552 43.8129 248.078 45.5136C256.048 48.4911 264.016 51.4887 271.98 54.5064C273.206 51.9898 275.032 47.1799 273.695 41.8546C273.508 41.1324 273.273 40.4236 272.992 39.7331L259.553 34.425L246.955 29.4434L234.434 40.4374Z" fill="white"/>
<path d="M270.489 61.6692C273.665 61.6692 276.24 59.0888 276.24 55.9059C276.24 52.7229 273.665 50.1426 270.489 50.1426C267.313 50.1426 264.738 52.7229 264.738 55.9059C264.738 59.0888 267.313 61.6692 270.489 61.6692Z" fill="#FF8856"/>
<path d="M257.082 70.6709C257.083 71.0483 257.01 71.4221 256.867 71.7711C256.723 72.1201 256.512 72.4373 256.246 72.7045C255.98 72.9717 255.664 73.1838 255.316 73.3284C254.969 73.4731 254.595 73.5476 254.219 73.5476" stroke="white" stroke-miterlimit="10" stroke-linecap="round"/>
<path d="M237.932 54.472C239.526 52.5824 241.223 50.8646 242.962 49.1468C244.702 47.4289 246.502 45.797 248.31 44.1737C250.119 42.5503 251.996 40.9957 253.907 39.484C255.818 37.9723 257.764 36.495 259.82 35.1895C258.235 37.0705 256.538 38.8226 254.79 40.5233C253.041 42.2239 251.259 43.873 249.442 45.4964C247.625 47.1197 245.756 48.6744 243.845 50.186C241.934 51.6977 239.989 53.1321 237.932 54.472Z" fill="#E6E7E8"/>
<path d="M340.817 12.4453L334.184 19.0933" stroke="white" stroke-width="1.5" stroke-miterlimit="10" stroke-linecap="round"/>
<path d="M334.184 12.4453L340.817 19.0933" stroke="white" stroke-width="1.5" stroke-miterlimit="10" stroke-linecap="round"/>
<path d="M78.5232 92.3934C78.5232 92.3934 73.7152 90.2896 70.9727 93.2521L78.5232 92.3934Z" fill="#231F20"/>
<path d="M78.331 91.9794C78.0176 91.7578 77.7519 91.4754 77.5496 91.1489C77.3473 90.8224 77.2126 90.4585 77.1534 90.0789C77.0942 89.6992 77.1118 89.3115 77.2052 88.9388C77.2985 88.5661 77.4656 88.2159 77.6966 87.9092" fill="#231F20"/>
<path d="M251.104 56.6871L254.935 54.3429C254.54 54.096 254.084 53.9641 253.618 53.9619C253.153 53.9598 252.695 54.0875 252.298 54.3307C251.901 54.5739 251.578 54.9231 251.368 55.3393C251.157 55.7554 251.066 56.2221 251.104 56.6871Z" fill="#231F20"/>
<path d="M241.072 59.5304H245.555C245.347 59.1124 245.028 58.7607 244.632 58.5148C244.236 58.2689 243.779 58.1387 243.313 58.1387C242.848 58.1387 242.391 58.2689 241.995 58.5148C241.599 58.7607 241.28 59.1124 241.072 59.5304Z" fill="#231F20"/>
<path d="M100.24 103.335H104.731C104.525 102.915 104.205 102.561 103.808 102.313C103.411 102.066 102.953 101.935 102.486 101.935C102.018 101.935 101.56 102.066 101.163 102.313C100.766 102.561 100.447 102.915 100.24 103.335Z" fill="#231F20"/>
<path d="M171.521 106.539L155.036 111.279C153.603 111.691 152.775 113.19 153.186 114.626L161.934 145.181C162.345 146.618 163.841 147.448 165.274 147.036L181.758 142.296C183.191 141.883 184.02 140.385 183.608 138.949L174.86 108.393C174.449 106.957 172.954 106.127 171.521 106.539Z" fill="#231F20"/>
<path d="M173.461 111.416L155.725 116.517L163.071 142.176L180.808 137.076L173.461 111.416Z" fill="white"/>
<path d="M172.709 143.343C173.438 143.343 174.029 142.751 174.029 142.021C174.029 141.29 173.438 140.698 172.709 140.698C171.98 140.698 171.389 141.29 171.389 142.021C171.389 142.751 171.98 143.343 172.709 143.343Z" fill="white"/>
<path d="M166.549 111.34L161.724 112.706C161.67 112.723 161.613 112.729 161.557 112.723C161.501 112.717 161.446 112.701 161.396 112.673C161.347 112.646 161.303 112.609 161.268 112.564C161.233 112.52 161.208 112.469 161.193 112.414C161.161 112.304 161.174 112.187 161.229 112.087C161.283 111.987 161.375 111.913 161.484 111.881L166.309 110.499C166.363 110.482 166.42 110.476 166.477 110.482C166.533 110.487 166.588 110.504 166.637 110.531C166.687 110.559 166.73 110.596 166.765 110.64C166.8 110.685 166.826 110.736 166.841 110.791C166.858 110.846 166.864 110.904 166.859 110.962C166.853 111.019 166.837 111.075 166.809 111.126C166.782 111.178 166.745 111.223 166.701 111.259C166.656 111.296 166.605 111.324 166.549 111.34Z" fill="white"/>
<path fill-rule="evenodd" clip-rule="evenodd" d="M168.253 134.265H167.988C166.878 134.216 165.792 133.923 164.808 133.406C163.823 132.893 162.96 132.173 162.278 131.295C161.596 130.417 161.111 129.402 160.856 128.319C160.601 127.236 160.583 126.111 160.802 125.021C161.021 123.93 161.473 122.899 162.126 122C163.114 120.653 164.518 119.671 166.12 119.205C167.722 118.74 169.433 118.816 170.987 119.423C167.345 122.644 166.248 124.181 167.653 125.641C166.574 127.196 165.545 129.189 165.939 131.413C166.08 132.034 166.358 132.614 166.755 133.111C167.151 133.608 167.655 134.008 168.228 134.282M165.708 127.943C166.565 127.196 167.576 124.757 162.031 123.314C162.94 128.33 164.157 129.137 165.459 128.235C165.202 125.659 162.528 123.717 162.528 123.717C164.103 124.657 165.252 126.172 165.734 127.943M170.576 121.201C170.128 122.914 169.347 124.522 168.279 125.933C169.993 126.517 172.676 125.315 171.004 119.406C172.384 119.947 173.579 120.876 174.447 122.081C175.314 123.285 175.816 124.715 175.894 126.198C175.972 127.681 175.621 129.155 174.885 130.444C174.149 131.733 173.057 132.782 171.741 133.466C171.17 133.761 170.532 133.903 169.89 133.878C169.248 133.844 168.626 133.646 168.082 133.303C167.535 132.952 167.089 132.463 166.789 131.886C166.488 131.309 166.343 130.664 166.368 130.013C166.368 129.919 166.368 129.816 166.368 129.704C166.684 128.044 167.38 126.48 168.399 125.135C169.342 123.966 170.059 122.632 170.516 121.201M167.131 129.575C166.959 130.812 169.702 132.306 174.407 128.45C169.213 125.83 167.499 128.175 167.182 129.077C169.128 128.347 173.344 128.587 173.344 128.587C173.344 128.587 167.422 128.785 167.131 129.575Z" fill="#009BA1"/>
<defs>
<linearGradient id="paint0_linear_1468_5347" x1="291.787" y1="176.712" x2="248.953" y2="33.8405" gradientUnits="userSpaceOnUse">
<stop stop-color="#8999CD"/>
<stop offset="0.09" stop-color="#8999CD" stop-opacity="0.96"/>
<stop offset="0.23" stop-color="#8999CD" stop-opacity="0.85"/>
<stop offset="0.41" stop-color="#8999CD" stop-opacity="0.68"/>
<stop offset="0.63" stop-color="#8999CD" stop-opacity="0.44"/>
<stop offset="0.87" stop-color="#8999CD" stop-opacity="0.13"/>
<stop offset="0.97" stop-color="#8999CD" stop-opacity="0"/>
</linearGradient>
<linearGradient id="paint1_linear_1468_5347" x1="76.0097" y1="233.856" x2="76.0097" y2="87.1967" gradientUnits="userSpaceOnUse">
<stop stop-color="#6AA197"/>
<stop offset="0.68" stop-color="#6AA197" stop-opacity="0"/>
</linearGradient>
</defs>
</svg>
