<?xml version="1.0" encoding="utf-8"?>
<!-- Generator: Adobe Illustrator 27.5.0, SVG Export Plug-In . SVG Version: 6.00 Build 0)  -->
<svg version="1.1" xmlns="http://www.w3.org/2000/svg" xmlns:xlink="http://www.w3.org/1999/xlink" x="0px" y="0px"
	 viewBox="0 0 1122 1122" style="enable-background:new 0 0 1122 1122;" xml:space="preserve">
<g id="Bg">
	<rect id="XMLID_1116_" x="0" y="0" style="fill:#FFF6E3;" width="1122" height="1122"/>
</g>
<g id="Object">
	<g id="XMLID_133_">
		
			<ellipse id="XMLID_4235_" transform="matrix(0.7071 -0.7071 0.7071 0.7071 -233.1819 559.049)" style="fill:#2B4449;" cx="558.241" cy="561" rx="315.214" ry="315.213"/>
		<path id="XMLID_4296_" style="fill:#ABD5CB;" d="M866.776,588.714h-22.16c2.027-10.642,3.131-21.695,3.131-33.058
			c0-83.114-57.221-150.493-127.808-150.493c-12.596,0-24.754,2.18-36.25,6.178c-21.113-48.873-64.198-82.377-113.956-82.377
			c-52.392,0-97.396,37.134-117.129,90.259c-16.393-9.003-34.662-14.06-53.944-14.06c-70.586,0-127.808,67.379-127.808,150.493
			c0,11.363,1.104,22.416,3.131,33.058h-18.761c-27.427,0-49.867,26.423-49.867,58.719c0,32.295,22.44,58.717,49.867,58.717h611.553
			c27.427,0,49.867-26.423,49.867-58.717C916.643,615.137,894.203,588.714,866.776,588.714z"/>
		<g id="XMLID_4277_">
			<path id="XMLID_4279_" style="fill:#60A2A2;" d="M694.82,639.319L589.557,481.424c-8.936-13.404-28.632-13.404-37.567,0
				L446.727,639.319c-10.001,15.002,0.753,35.097,18.784,35.097h52.14v108.665c0,8.211,6.718,14.929,14.928,14.929h76.39
				c8.211,0,14.928-6.718,14.928-14.929V674.416h52.14C694.068,674.416,704.822,654.321,694.82,639.319z"/>
			<path id="XMLID_4278_" style="fill:#C45F43;" d="M684.919,639.319L579.655,481.424c-8.935-13.404-28.631-13.404-37.567,0
				L436.825,639.319c-10.001,15.002,0.753,35.097,18.784,35.097h52.14v108.665c0,8.211,6.718,14.929,14.928,14.929h76.39
				c8.211,0,14.928-6.718,14.928-14.929V674.416h52.14C684.166,674.416,694.92,654.321,684.919,639.319z"/>
		</g>
	</g>
</g>
</svg>
